<svg width="1006" height="580" viewBox="0 0 1006 580" fill="none" xmlns="http://www.w3.org/2000/svg">
<ellipse opacity="0.6" cx="95.5568" cy="91.7055" rx="94.5" ry="91.5" transform="rotate(0.124747 95.5568 91.7055)" fill="#FB6542"/>
<ellipse opacity="0.6" cx="95.1279" cy="288.705" rx="94.5" ry="91.5" transform="rotate(0.124747 95.1279 288.705)" fill="#FAD744"/>
<ellipse opacity="0.6" cx="94.699" cy="485.705" rx="94.5" ry="91.5" transform="rotate(0.124747 94.699 485.705)" fill="#2B3252"/>
<path d="M57.3064 79.5348L57.2801 80.1222L46.9052 80.0996L46.9434 62.5247L57.3184 62.5472L57.3171 63.1347L47.6296 63.1137L47.6127 70.9011L55.7752 70.9189L55.7739 71.4939L47.6114 71.4761L47.5939 79.5136L57.3064 79.5348ZM61.0148 70.1928C61.5916 69.4024 62.2763 68.7747 63.0689 68.3098C63.87 67.8449 64.7413 67.6134 65.683 67.6155C66.3663 67.617 66.9619 67.7266 67.4698 67.9444C67.986 68.1538 68.4103 68.4589 68.7428 68.8596C69.0836 69.252 69.3367 69.7359 69.5021 70.3113C69.6759 70.8867 69.7619 71.5369 69.7604 72.2619L69.7432 80.1493L69.0807 80.1479L69.0979 72.2604C69.0993 71.6188 69.0297 71.0436 68.8891 70.535C68.7486 70.0263 68.5287 69.5967 68.2294 69.246C67.9385 68.8871 67.5725 68.6154 67.1312 68.4311C66.6899 68.2385 66.1693 68.1415 65.5693 68.1402C64.6693 68.1383 63.8355 68.374 63.0678 68.8473C62.3084 69.3123 61.632 69.9608 61.0385 70.7929L61.0182 80.1303L60.3557 80.1289L60.3825 67.8039L60.695 67.8046C60.8534 67.805 60.9365 67.8885 60.9445 68.0552L61.0148 70.1928ZM82.1645 69.2014C82.1395 69.2263 82.1144 69.2513 82.0894 69.2762C82.0643 69.2928 82.031 69.3011 81.9893 69.301C81.9226 69.3008 81.8186 69.2423 81.6772 69.1253C81.5358 69.0083 81.3402 68.8787 81.0905 68.7365C80.8408 68.5943 80.5244 68.4645 80.1414 68.347C79.7583 68.2295 79.2959 68.1701 78.7543 68.1689C77.9876 68.1673 77.304 68.3033 76.7034 68.577C76.1111 68.8423 75.6061 69.2287 75.1883 69.7362C74.7789 70.2436 74.4651 70.8554 74.2468 71.5716C74.0286 72.2878 73.9185 73.0959 73.9166 73.9959C73.9145 74.9209 74.0211 75.7461 74.2362 76.4716C74.4596 77.1888 74.7708 77.7936 75.1697 78.2862C75.577 78.7787 76.0637 79.1548 76.6298 79.4143C77.2042 79.6739 77.8414 79.8045 78.5414 79.806C79.1747 79.8074 79.7041 79.7377 80.1294 79.597C80.563 79.4479 80.9217 79.2862 81.2054 79.1118C81.4892 78.9291 81.7062 78.7671 81.8565 78.6257C82.0068 78.476 82.1153 78.4013 82.182 78.4014C82.2486 78.4016 82.3028 78.4267 82.3443 78.4768L82.4939 78.6646C82.3435 78.8726 82.1347 79.0763 81.8676 79.2757C81.6088 79.4752 81.3043 79.6537 80.9539 79.8112C80.6119 79.9605 80.2283 80.0805 79.8031 80.1712C79.3862 80.2703 78.9403 80.3194 78.4653 80.3183C77.6736 80.3166 76.9573 80.1734 76.3162 79.8887C75.6752 79.6039 75.1261 79.1902 74.6689 78.6476C74.2201 78.1049 73.8716 77.4417 73.6233 76.6578C73.375 75.8739 73.2519 74.9861 73.2541 73.9945C73.2561 73.0445 73.3788 72.1781 73.6222 71.3953C73.8739 70.6125 74.2337 69.9466 74.7016 69.3976C75.1694 68.8403 75.7412 68.4082 76.4169 68.1013C77.0926 67.7945 77.8637 67.642 78.7304 67.6439C79.4971 67.6455 80.1801 67.772 80.7796 68.0233C81.379 68.2663 81.895 68.5883 82.3275 68.9892L82.1645 69.2014ZM86.379 71.1605C86.5636 70.6026 86.7813 70.1072 87.0322 69.6745C87.2832 69.2417 87.5715 68.8756 87.8971 68.5763C88.2311 68.2771 88.6066 68.0529 89.0236 67.9038C89.4406 67.7464 89.9116 67.6682 90.4366 67.6694C90.6783 67.6699 90.9241 67.6913 91.174 67.7335C91.4322 67.7674 91.6612 67.8429 91.861 67.96L91.7851 68.3473C91.7516 68.4389 91.6932 68.4846 91.6098 68.4844C91.5182 68.4842 91.3766 68.4547 91.185 68.396C91.0019 68.3289 90.7269 68.295 90.3603 68.2942C89.8436 68.2931 89.3809 68.3754 88.9722 68.5412C88.5719 68.6986 88.213 68.9354 87.8957 69.2513C87.5866 69.5673 87.3108 69.9626 87.0681 70.437C86.8254 70.9115 86.6033 71.4652 86.402 72.0981L86.3844 80.1856L85.7219 80.1841L85.7487 67.8592L86.0487 67.8598C86.2154 67.8602 86.3027 67.952 86.3106 68.1354L86.379 71.1605ZM104.028 67.899L96.8042 84.3458C96.7624 84.429 96.7122 84.5039 96.6537 84.5704C96.5953 84.637 96.5119 84.6701 96.4035 84.6699L95.966 84.6689L98.1014 79.9111L92.8526 67.8746L93.3526 67.8757C93.4442 67.8759 93.515 67.9011 93.5649 67.9512C93.6231 68.0013 93.6605 68.0514 93.6771 68.1014L98.2541 78.6614C98.337 78.8449 98.3991 79.0367 98.4404 79.2368C98.4991 79.0619 98.5703 78.8704 98.6541 78.6623L103.252 68.1223C103.286 68.0557 103.327 68.0016 103.377 67.96C103.436 67.9185 103.498 67.8978 103.565 67.898L104.028 67.899ZM107.435 77.6689C107.941 78.4783 108.507 79.0504 109.131 79.3851C109.755 79.7115 110.476 79.8755 111.293 79.8773C112.101 79.8791 112.805 79.7348 113.406 79.4444C114.007 79.1457 114.508 78.7343 114.909 78.2102C115.31 77.686 115.611 77.0659 115.813 76.3496C116.014 75.6334 116.116 74.8545 116.118 74.0128C116.122 72.0545 115.754 70.6037 115.015 69.6604C114.275 68.7171 113.201 68.2439 111.793 68.2409C110.926 68.239 110.121 68.4747 109.379 68.9481C108.644 69.4215 108.001 70.0784 107.45 70.9189L107.435 77.6689ZM107.426 70.3064C107.978 69.4992 108.633 68.8673 109.392 68.4106C110.16 67.9456 111.006 67.7142 111.931 67.7162C113.49 67.7196 114.689 68.2388 115.528 69.274C116.376 70.3092 116.797 71.8893 116.793 74.0143C116.791 74.9143 116.672 75.7515 116.437 76.526C116.211 77.3005 115.867 77.9748 115.408 78.5488C114.957 79.1228 114.393 79.5757 113.717 79.9076C113.05 80.2311 112.275 80.3919 111.391 80.39C109.658 80.3862 108.339 79.7042 107.433 78.3439L107.42 84.6939L106.757 84.6924L106.794 67.905L107.106 67.9057C107.264 67.906 107.348 67.9895 107.356 68.1562L107.426 70.3064ZM123.442 80.4663C122.675 80.4646 122.075 80.2549 121.643 79.8373C121.211 79.4114 120.995 78.7318 120.997 77.7984L121.017 68.9109L119.092 68.9068C118.933 68.9064 118.854 68.8437 118.855 68.7187L118.855 68.4937L121.018 68.411L121.216 63.6614C121.224 63.6114 121.245 63.5656 121.279 63.524C121.312 63.4741 121.358 63.4492 121.416 63.4493L121.691 63.4499L121.68 68.4124L125.755 68.4213L125.754 68.9213L121.679 68.9124L121.66 77.7749C121.659 78.1582 121.708 78.4875 121.808 78.7627C121.907 79.0296 122.04 79.2507 122.206 79.4261C122.373 79.6014 122.568 79.731 122.793 79.8148C123.026 79.8904 123.276 79.9284 123.543 79.929C123.868 79.9297 124.151 79.8803 124.393 79.7808C124.643 79.6814 124.856 79.5735 125.031 79.4572C125.207 79.3409 125.349 79.2329 125.457 79.1331C125.566 79.0334 125.645 78.9836 125.695 78.9837C125.737 78.9837 125.782 79.0088 125.832 79.059L125.994 79.2968C125.852 79.4715 125.685 79.6295 125.493 79.7707C125.31 79.912 125.105 80.0365 124.88 80.1444C124.655 80.2439 124.421 80.3226 124.179 80.3804C123.938 80.4382 123.692 80.4668 123.442 80.4663ZM137.496 72.9468C137.497 72.2052 137.39 71.5466 137.175 70.9711C136.968 70.3873 136.677 69.895 136.303 69.4942C135.937 69.0934 135.501 68.7883 134.993 68.5789C134.485 68.3694 133.935 68.2641 133.343 68.2628C132.643 68.2613 132.014 68.3724 131.455 68.5962C130.905 68.8116 130.429 69.1231 130.028 69.5306C129.627 69.938 129.301 70.429 129.05 71.0034C128.807 71.5779 128.647 72.2192 128.571 72.9274L137.496 72.9468ZM137.758 78.7849C137.591 78.9929 137.357 79.1966 137.057 79.3959C136.756 79.5952 136.41 79.7737 136.018 79.9311C135.634 80.0803 135.213 80.2002 134.755 80.2909C134.305 80.3899 133.842 80.4389 133.367 80.4379C132.525 80.436 131.763 80.2885 131.08 79.9954C130.406 79.6939 129.828 79.2635 129.346 78.7041C128.872 78.1447 128.507 77.4606 128.25 76.6517C127.994 75.8345 127.866 74.905 127.869 73.8634C127.871 72.9634 127.993 72.1428 128.237 71.4017C128.488 70.6522 128.848 70.0072 129.316 69.4665C129.784 68.9259 130.355 68.5063 131.031 68.2078C131.707 67.9092 132.474 67.7609 133.332 67.7628C133.999 67.7642 134.619 67.8822 135.194 68.1168C135.777 68.3514 136.284 68.6984 136.716 69.1576C137.149 69.6086 137.485 70.1676 137.725 70.8348C137.974 71.502 138.097 72.2648 138.095 73.1231C138.095 73.2981 138.02 73.3855 137.87 73.3852L128.532 73.3648C128.524 73.4481 128.519 73.5315 128.519 73.6148C128.519 73.6898 128.519 73.7731 128.519 73.8648C128.517 74.8481 128.631 75.715 128.863 76.4656C129.095 77.2161 129.423 77.8459 129.846 78.3552C130.27 78.8645 130.782 79.2531 131.381 79.521C131.989 79.7807 132.664 79.9113 133.406 79.9129C134.064 79.9144 134.635 79.8448 135.119 79.7042C135.602 79.5552 136.007 79.3936 136.332 79.2193C136.657 79.045 136.908 78.8872 137.083 78.746C137.267 78.5964 137.384 78.5216 137.434 78.5217C137.5 78.5219 137.554 78.547 137.596 78.5971L137.758 78.7849ZM150.178 70.4869C149.663 69.6942 149.094 69.1346 148.469 68.8082C147.845 68.4735 147.129 68.3053 146.32 68.3035C145.512 68.3018 144.808 68.4502 144.207 68.7489C143.606 69.0393 143.105 69.4465 142.704 69.9707C142.303 70.4948 142.002 71.115 141.8 71.8312C141.599 72.5474 141.497 73.3264 141.495 74.168C141.491 76.1264 141.854 77.5772 142.586 78.5204C143.325 79.4637 144.403 79.9369 145.82 79.94C146.687 79.9419 147.487 79.7061 148.222 79.2327C148.964 78.7593 149.612 78.1024 150.163 77.2619L150.178 70.4869ZM150.859 62.2509L150.819 80.3259L150.519 80.3252C150.352 80.3248 150.265 80.2413 150.257 80.0746L150.187 77.8745C149.635 78.6816 148.976 79.3177 148.208 79.7827C147.449 80.2394 146.606 80.4667 145.681 80.4647C144.115 80.4613 142.912 79.942 142.072 78.9068C141.233 77.8717 140.815 76.2916 140.82 74.1666C140.822 73.2666 140.936 72.4293 141.163 71.6548C141.398 70.8803 141.741 70.2061 142.192 69.6321C142.652 69.0581 143.215 68.6093 143.883 68.2857C144.559 67.9539 145.338 67.7889 146.221 67.7908C147.105 67.7927 147.867 67.9652 148.508 68.3083C149.157 68.6431 149.714 69.1484 150.18 69.8244L150.196 62.2495L150.859 62.2509ZM63.3615 103.836L59.3578 94.0393C59.2667 93.8141 59.1797 93.5639 59.097 93.2887C59.0214 93.5635 58.9333 93.8133 58.8328 94.0381L54.7865 103.817L63.3615 103.836ZM66.6728 110.143L66.1353 110.142C66.0103 110.141 65.9188 110.07 65.8608 109.928L63.5854 104.361L54.5604 104.341L52.2608 109.899C52.2188 110.04 52.1228 110.111 51.9728 110.111L51.4603 110.11L58.7736 92.5505L59.4361 92.5519L66.6728 110.143ZM77.1432 99.1905C77.1181 99.2154 77.093 99.2404 77.068 99.2653C77.043 99.2819 77.0096 99.2902 76.9679 99.2901C76.9013 99.29 76.7972 99.2314 76.6558 99.1144C76.5144 98.9975 76.3189 98.8679 76.0692 98.7257C75.8195 98.5834 75.5031 98.4536 75.12 98.3361C74.7369 98.2186 74.2746 98.1592 73.7329 98.1581C72.9662 98.1564 72.2826 98.2924 71.682 98.5661C71.0898 98.8315 70.5847 99.2179 70.167 99.7253C69.7575 100.233 69.4437 100.845 69.2255 101.561C69.0072 102.277 68.8972 103.085 68.8952 103.985C68.8932 104.91 68.9997 105.735 69.2148 106.461C69.4382 107.178 69.7494 107.783 70.1484 108.275C70.5556 108.768 71.0423 109.144 71.6084 109.403C72.1828 109.663 72.8201 109.794 73.5201 109.795C74.1534 109.797 74.6827 109.727 75.108 109.586C75.5417 109.437 75.9004 109.275 76.1841 109.101C76.4678 108.918 76.6848 108.756 76.8351 108.615C76.9855 108.465 77.094 108.39 77.1606 108.391C77.2273 108.391 77.2814 108.416 77.323 108.466L77.4725 108.654C77.3221 108.862 77.1133 109.065 76.8462 109.265C76.5875 109.464 76.2829 109.643 75.9326 109.8C75.5906 109.95 75.207 110.07 74.7818 110.16C74.3649 110.259 73.9189 110.309 73.4439 110.307C72.6523 110.306 71.9359 110.163 71.2949 109.878C70.6538 109.593 70.1047 109.179 69.6476 108.637C69.1987 108.094 68.8502 107.431 68.6019 106.647C68.3536 105.863 68.2305 104.975 68.2327 103.984C68.2348 103.034 68.3575 102.167 68.6009 101.384C68.8526 100.602 69.2123 99.9357 69.6802 99.3867C70.1481 98.8294 70.7199 98.3973 71.3955 98.0905C72.0712 97.7836 72.8424 97.6311 73.709 97.633C74.4757 97.6347 75.1588 97.7612 75.7582 98.0125C76.3577 98.2555 76.8737 98.5774 77.3061 98.9784L77.1432 99.1905ZM88.6177 99.2155C88.5927 99.2404 88.5676 99.2654 88.5426 99.2903C88.5175 99.3069 88.4842 99.3152 88.4425 99.3151C88.3759 99.315 88.2718 99.2564 88.1304 99.1394C87.989 99.0224 87.7934 98.8929 87.5437 98.7506C87.2941 98.6084 86.9777 98.4786 86.5946 98.3611C86.2115 98.2436 85.7491 98.1842 85.2075 98.1831C84.4408 98.1814 83.7572 98.3174 83.1566 98.5911C82.5643 98.8565 82.0593 99.2429 81.6416 99.7503C81.2321 100.258 80.9183 100.87 80.7001 101.586C80.4818 102.302 80.3717 103.11 80.3698 104.01C80.3678 104.935 80.4743 105.76 80.6894 106.486C80.9128 107.203 81.224 107.808 81.6229 108.3C82.0302 108.793 82.5169 109.169 83.083 109.428C83.6574 109.688 84.2946 109.819 84.9946 109.82C85.628 109.821 86.1573 109.752 86.5826 109.611C87.0163 109.462 87.3749 109.3 87.6587 109.126C87.9424 108.943 88.1594 108.781 88.3097 108.64C88.46 108.49 88.5685 108.415 88.6352 108.416C88.7019 108.416 88.756 108.441 88.7975 108.491L88.9471 108.679C88.7967 108.887 88.5879 109.09 88.3208 109.29C88.062 109.489 87.7575 109.668 87.4071 109.825C87.0651 109.975 86.6815 110.095 86.2563 110.185C85.8395 110.284 85.3935 110.333 84.9185 110.332C84.1269 110.331 83.4105 110.188 82.7695 109.903C82.1284 109.618 81.5793 109.204 81.1222 108.662C80.6733 108.119 80.3248 107.456 80.0765 106.672C79.8282 105.888 79.7051 105 79.7073 104.009C79.7093 103.059 79.8321 102.192 80.0754 101.409C80.3271 100.627 80.6869 99.9607 81.1548 99.4117C81.6227 98.8544 82.1944 98.4223 82.8701 98.1155C83.5458 97.8086 84.317 97.6561 85.1836 97.658C85.9503 97.6597 86.6333 97.7862 87.2328 98.0375C87.8323 98.2804 88.3482 98.6024 88.7807 99.0033L88.6177 99.2155ZM96.6707 97.683C97.5457 97.6849 98.3204 97.8408 98.9947 98.1506C99.6774 98.4521 100.251 98.8825 100.717 99.4418C101.182 99.9928 101.535 100.66 101.775 101.444C102.015 102.228 102.134 103.099 102.132 104.057C102.13 105.016 102.007 105.886 101.764 106.669C101.52 107.444 101.165 108.105 100.697 108.654C100.229 109.203 99.653 109.627 98.9691 109.926C98.2934 110.216 97.5181 110.36 96.6431 110.358C95.7681 110.356 94.9893 110.209 94.3066 109.915C93.6322 109.614 93.0623 109.188 92.5968 108.637C92.1314 108.086 91.7786 107.422 91.5387 106.647C91.2987 105.863 91.1798 104.992 91.1819 104.034C91.1839 103.075 91.3067 102.205 91.55 101.422C91.7934 100.639 92.149 99.9732 92.6169 99.4242C93.0848 98.8669 93.6565 98.4389 94.3322 98.1404C95.0162 97.8336 95.7957 97.6811 96.6707 97.683ZM96.6442 109.833C97.4442 109.835 98.1445 109.699 98.7451 109.425C99.3457 109.151 99.8466 108.761 100.248 108.253C100.657 107.746 100.963 107.138 101.164 106.43C101.366 105.722 101.467 104.931 101.469 104.056C101.471 103.181 101.373 102.385 101.175 101.668C100.976 100.951 100.673 100.338 100.266 99.8283C99.8672 99.3108 99.368 98.9139 98.7686 98.6376C98.1692 98.3529 97.4696 98.2098 96.6696 98.208C95.8696 98.2063 95.1693 98.3464 94.5686 98.6284C93.968 98.9021 93.463 99.2969 93.0536 99.8126C92.6524 100.32 92.3511 100.932 92.1496 101.648C91.948 102.364 91.8463 103.16 91.8444 104.035C91.8425 104.91 91.9407 105.702 92.1392 106.411C92.3376 107.119 92.6363 107.728 93.0352 108.238C93.4424 108.747 93.9457 109.14 94.5451 109.416C95.1445 109.692 95.8442 109.831 96.6442 109.833ZM115.05 97.923L115.024 110.248L114.724 110.247C114.574 110.247 114.486 110.163 114.462 109.997L114.404 107.847C113.819 108.637 113.13 109.269 112.337 109.742C111.545 110.207 110.673 110.439 109.723 110.436C109.04 110.435 108.44 110.329 107.924 110.12C107.416 109.902 106.992 109.597 106.651 109.205C106.318 108.804 106.065 108.316 105.892 107.741C105.726 107.165 105.644 106.515 105.646 105.79L105.663 97.9026L106.326 97.904L106.308 105.792C106.307 106.433 106.377 107.008 106.517 107.517C106.658 108.026 106.873 108.459 107.164 108.818C107.463 109.169 107.834 109.441 108.275 109.633C108.725 109.818 109.249 109.91 109.849 109.912C110.741 109.914 111.567 109.682 112.326 109.217C113.094 108.744 113.778 108.091 114.38 107.259L114.4 97.9216L115.05 97.923ZM120.056 100.321C120.633 99.531 121.317 98.9033 122.11 98.4384C122.911 97.9735 123.782 97.742 124.724 97.7441C125.407 97.7456 126.003 97.8552 126.511 98.073C127.027 98.2824 127.451 98.5875 127.784 98.9883C128.125 99.3807 128.378 99.8645 128.543 100.44C128.717 101.015 128.803 101.665 128.801 102.39L128.784 110.278L128.122 110.277L128.139 102.389C128.14 101.747 128.071 101.172 127.93 100.664C127.79 100.155 127.57 99.7253 127.27 99.3746C126.98 99.0157 126.613 98.744 126.172 98.5597C125.731 98.3671 125.21 98.2701 124.61 98.2688C123.71 98.2669 122.876 98.5026 122.109 98.9759C121.349 99.4409 120.673 100.089 120.08 100.921L120.059 110.259L119.397 110.258L119.424 97.9325L119.736 97.9332C119.894 97.9336 119.978 98.0171 119.985 98.1838L120.056 100.321ZM136.023 110.494C135.256 110.492 134.657 110.282 134.224 109.865C133.792 109.439 133.577 108.759 133.579 107.826L133.598 98.9384L131.673 98.9342C131.515 98.9339 131.436 98.8712 131.436 98.7462L131.436 98.5212L133.599 98.4384L133.797 93.6888C133.805 93.6389 133.826 93.5931 133.86 93.5515C133.893 93.5015 133.939 93.4766 133.997 93.4768L134.272 93.4774L134.262 98.4399L138.337 98.4487L138.335 98.9487L134.26 98.9399L134.241 107.802C134.24 108.186 134.29 108.515 134.389 108.79C134.488 109.057 134.621 109.278 134.788 109.454C134.954 109.629 135.149 109.758 135.374 109.842C135.607 109.918 135.857 109.956 136.124 109.956C136.449 109.957 136.732 109.908 136.974 109.808C137.224 109.709 137.437 109.601 137.612 109.485C137.788 109.368 137.93 109.26 138.038 109.161C138.147 109.061 138.226 109.011 138.276 109.011C138.318 109.011 138.363 109.036 138.413 109.086L138.575 109.324C138.433 109.499 138.266 109.657 138.074 109.798C137.891 109.939 137.686 110.064 137.461 110.172C137.236 110.271 137.002 110.35 136.76 110.408C136.519 110.466 136.273 110.494 136.023 110.494Z" fill="black"/>
<path d="M86.6537 269.399C86.6507 270.774 86.448 272.007 86.0457 273.098C85.6433 274.18 85.0788 275.1 84.3521 275.857C83.6255 276.605 82.7576 277.178 81.7484 277.576C80.7392 277.974 79.6263 278.171 78.4096 278.169L72.0721 278.155L72.1104 260.58L78.4479 260.594C79.6645 260.596 80.7766 260.799 81.7841 261.201C82.7915 261.603 83.6569 262.184 84.3803 262.944C85.1036 263.696 85.6641 264.618 86.0617 265.71C86.4594 266.794 86.6567 268.024 86.6537 269.399ZM85.9287 269.398C85.9316 268.089 85.7508 266.926 85.3863 265.909C85.0302 264.883 84.5196 264.019 83.8544 263.318C83.1976 262.617 82.4071 262.081 81.4829 261.713C80.5671 261.344 79.555 261.159 78.4466 261.156L72.7967 261.144L72.7608 277.594L78.4108 277.606C79.5192 277.609 80.5321 277.427 81.4495 277.063C82.3753 276.698 83.1681 276.167 83.828 275.468C84.4962 274.769 85.0106 273.912 85.3711 272.896C85.74 271.872 85.9259 270.706 85.9287 269.398ZM97.1384 272.034C94.6216 272.112 92.7584 272.421 91.5489 272.96C90.3477 273.499 89.7461 274.26 89.7439 275.243C89.7429 275.702 89.8171 276.098 89.9663 276.431C90.1239 276.765 90.3275 277.045 90.577 277.27C90.8349 277.487 91.1262 277.651 91.451 277.76C91.7757 277.86 92.109 277.911 92.4506 277.912C92.984 277.913 93.4716 277.856 93.9135 277.74C94.3554 277.616 94.7641 277.45 95.1396 277.243C95.515 277.035 95.8656 276.79 96.1912 276.507C96.5168 276.225 96.83 275.925 97.1306 275.609L97.1384 272.034ZM89.773 267.618C90.3911 266.986 91.038 266.504 91.7137 266.173C92.3894 265.841 93.1606 265.676 94.0273 265.678C94.6689 265.679 95.227 265.784 95.7016 265.994C96.1761 266.195 96.5672 266.487 96.8747 266.871C97.1905 267.255 97.4228 267.723 97.5716 268.273C97.7204 268.815 97.7941 269.428 97.7926 270.111L97.775 278.211L97.55 278.21C97.3833 278.21 97.2877 278.122 97.2631 277.947L97.142 276.122C96.7996 276.471 96.4572 276.787 96.115 277.07C95.7727 277.352 95.4097 277.593 95.0259 277.792C94.6421 277.983 94.2293 278.132 93.7874 278.24C93.3455 278.347 92.8579 278.4 92.3246 278.399C91.9329 278.398 91.5455 278.339 91.1624 278.221C90.7794 278.104 90.4339 277.92 90.1261 277.669C89.8184 277.418 89.5691 277.097 89.3782 276.705C89.1958 276.305 89.1052 275.825 89.1064 275.267C89.1076 274.725 89.2628 274.234 89.5721 273.793C89.8897 273.352 90.378 272.974 91.0371 272.659C91.6961 272.335 92.53 272.083 93.5387 271.902C94.5475 271.712 95.7477 271.602 97.1394 271.572L97.1426 270.109C97.1453 268.876 96.8807 267.917 96.3489 267.233C95.817 266.548 95.0261 266.205 93.9761 266.203C93.3511 266.201 92.8134 266.292 92.363 266.474C91.9126 266.648 91.5372 266.847 91.2367 267.072C90.9363 267.288 90.6942 267.487 90.5104 267.67C90.335 267.845 90.2015 267.932 90.1098 267.932C90.0265 267.931 89.9516 267.885 89.8851 267.794L89.773 267.618ZM105.078 278.427C104.312 278.425 103.712 278.215 103.28 277.798C102.847 277.372 102.632 276.692 102.634 275.759L102.654 266.871L100.729 266.867C100.57 266.867 100.491 266.804 100.492 266.679L100.492 266.454L102.655 266.371L102.853 261.622C102.861 261.572 102.882 261.526 102.915 261.484C102.949 261.435 102.995 261.41 103.053 261.41L103.328 261.41L103.317 266.373L107.392 266.382L107.391 266.882L103.316 266.873L103.297 275.735C103.296 276.119 103.345 276.448 103.445 276.723C103.544 276.99 103.677 277.211 103.843 277.387C104.009 277.562 104.205 277.691 104.43 277.775C104.663 277.851 104.913 277.889 105.18 277.889C105.505 277.89 105.788 277.841 106.03 277.741C106.28 277.642 106.493 277.534 106.668 277.418C106.843 277.301 106.985 277.193 107.094 277.094C107.202 276.994 107.282 276.944 107.332 276.944C107.373 276.944 107.419 276.969 107.469 277.019L107.631 277.257C107.489 277.432 107.322 277.59 107.13 277.731C106.946 277.872 106.742 277.997 106.517 278.105C106.291 278.204 106.058 278.283 105.816 278.341C105.574 278.399 105.328 278.427 105.078 278.427ZM117.304 272.078C114.788 272.156 112.924 272.465 111.715 273.004C110.514 273.543 109.912 274.304 109.91 275.287C109.909 275.746 109.983 276.142 110.132 276.475C110.29 276.809 110.493 277.089 110.743 277.314C111.001 277.531 111.292 277.694 111.617 277.803C111.942 277.904 112.275 277.955 112.617 277.956C113.15 277.957 113.638 277.9 114.079 277.784C114.521 277.66 114.93 277.494 115.306 277.286C115.681 277.079 116.032 276.834 116.357 276.551C116.683 276.269 116.996 275.969 117.297 275.653L117.304 272.078ZM109.939 267.662C110.557 267.03 111.204 266.548 111.88 266.217C112.555 265.885 113.327 265.72 114.193 265.722C114.835 265.723 115.393 265.828 115.868 266.038C116.342 266.239 116.733 266.531 117.041 266.915C117.356 267.299 117.589 267.766 117.738 268.317C117.886 268.859 117.96 269.471 117.959 270.155L117.941 278.255L117.716 278.254C117.549 278.254 117.454 278.166 117.429 277.991L117.308 276.166C116.966 276.515 116.623 276.831 116.281 277.114C115.939 277.396 115.576 277.637 115.192 277.836C114.808 278.027 114.395 278.176 113.953 278.284C113.511 278.391 113.024 278.444 112.491 278.443C112.099 278.442 111.711 278.383 111.328 278.265C110.945 278.148 110.6 277.964 110.292 277.713C109.984 277.462 109.735 277.141 109.544 276.749C109.362 276.349 109.271 275.869 109.272 275.311C109.274 274.769 109.429 274.278 109.738 273.837C110.056 273.396 110.544 273.018 111.203 272.703C111.862 272.379 112.696 272.127 113.705 271.945C114.713 271.756 115.914 271.646 117.305 271.616L117.309 270.153C117.311 268.92 117.047 267.961 116.515 267.277C115.983 266.592 115.192 266.249 114.142 266.246C113.517 266.245 112.979 266.336 112.529 266.518C112.079 266.692 111.703 266.891 111.403 267.115C111.102 267.331 110.86 267.531 110.676 267.714C110.501 267.889 110.367 267.976 110.276 267.976C110.192 267.975 110.118 267.929 110.051 267.838L109.939 267.662ZM53.8193 307.528L53.793 308.115L43.418 308.093L43.4563 290.518L53.8312 290.54L53.83 291.128L44.1425 291.107L44.1255 298.894L52.288 298.912L52.2868 299.487L44.1243 299.469L44.1068 307.507L53.8193 307.528ZM65.8318 308.141L65.2068 308.14C65.1235 308.14 65.061 308.115 65.0195 308.065C64.9779 308.006 64.9405 307.956 64.9073 307.914L60.8324 302.13C60.8072 302.239 60.7611 302.334 60.6943 302.418L56.7323 307.897C56.6905 307.946 56.6446 307.996 56.5945 308.046C56.5527 308.096 56.4943 308.121 56.4193 308.121L55.8318 308.12L60.3955 301.842L56.0337 295.795L56.6587 295.796C56.742 295.797 56.8003 295.822 56.8335 295.872C56.8751 295.913 56.9125 295.955 56.9457 295.997L60.8712 301.543C60.8879 301.493 60.9047 301.443 60.9215 301.393C60.9466 301.343 60.98 301.293 61.0218 301.243L64.7957 296.027C64.8291 295.977 64.8667 295.931 64.9085 295.889C64.9586 295.839 65.017 295.815 65.0837 295.815L65.6836 295.816L61.2956 301.794L65.8318 308.141ZM71.8589 308.354C71.0922 308.353 70.4927 308.143 70.0603 307.726C69.6279 307.3 69.4127 306.62 69.4147 305.687L69.4341 296.799L67.5091 296.795C67.3507 296.795 67.2717 296.732 67.272 296.607L67.2725 296.382L69.4351 296.299L69.633 291.55C69.6414 291.5 69.6624 291.454 69.6958 291.412C69.7292 291.362 69.7751 291.337 69.8334 291.338L70.1084 291.338L70.0976 296.301L74.1726 296.309L74.1715 296.809L70.0966 296.801L70.0773 305.663C70.0764 306.046 70.1257 306.376 70.2251 306.651C70.3245 306.918 70.4574 307.139 70.6237 307.314C70.79 307.49 70.9855 307.619 71.2103 307.703C71.4435 307.779 71.6934 307.817 71.9601 307.817C72.2851 307.818 72.5685 307.769 72.8104 307.669C73.0606 307.57 73.2734 307.462 73.4486 307.345C73.6239 307.229 73.7658 307.121 73.8743 307.021C73.9829 306.922 74.0621 306.872 74.1121 306.872C74.1538 306.872 74.1996 306.897 74.2495 306.947L74.4115 307.185C74.2694 307.36 74.1024 307.518 73.9104 307.659C73.7268 307.8 73.5223 307.925 73.2971 308.033C73.0719 308.132 72.8384 308.211 72.5966 308.269C72.3548 308.326 72.1089 308.355 71.8589 308.354ZM77.7161 299.142C77.9006 298.584 78.1184 298.089 78.3693 297.656C78.6203 297.223 78.9086 296.857 79.2342 296.558C79.5682 296.259 79.9437 296.035 80.3607 295.885C80.7777 295.728 81.2487 295.65 81.7737 295.651C82.0154 295.652 82.2611 295.673 82.5111 295.715C82.7693 295.749 82.9983 295.825 83.1981 295.942L83.1222 296.329C83.0887 296.421 83.0303 296.466 82.9469 296.466C82.8553 296.466 82.7137 296.436 82.5221 296.378C82.3389 296.311 82.064 296.277 81.6973 296.276C81.1807 296.275 80.718 296.357 80.3093 296.523C79.9089 296.68 79.5501 296.917 79.2327 297.233C78.9237 297.549 78.6479 297.944 78.4052 298.419C78.1625 298.893 77.9404 299.447 77.739 300.08L77.7214 308.167L77.0589 308.166L77.0858 295.841L77.3858 295.841C77.5524 295.842 77.6397 295.934 77.6477 296.117L77.7161 299.142ZM92.4833 302.024C89.9664 302.102 88.1033 302.411 86.8938 302.95C85.6926 303.489 85.0909 304.25 85.0888 305.233C85.0878 305.692 85.1619 306.088 85.3112 306.421C85.4688 306.755 85.6724 307.035 85.9219 307.26C86.1797 307.477 86.471 307.64 86.7958 307.749C87.1206 307.85 87.4538 307.901 87.7955 307.902C88.3288 307.903 88.8164 307.846 89.2584 307.73C89.7003 307.606 90.109 307.44 90.4844 307.233C90.8599 307.025 91.2104 306.78 91.536 306.497C91.8617 306.215 92.1748 305.915 92.4755 305.599L92.4833 302.024ZM85.1179 297.608C85.7359 296.976 86.3828 296.494 87.0585 296.163C87.7343 295.831 88.5054 295.666 89.3721 295.668C90.0138 295.669 90.5719 295.774 91.0464 295.984C91.521 296.185 91.912 296.477 92.2195 296.861C92.5354 297.245 92.7677 297.712 92.9165 298.263C93.0653 298.805 93.139 299.417 93.1375 300.101L93.1198 308.201L92.8948 308.2C92.7282 308.2 92.6325 308.112 92.6079 307.937L92.4869 306.112C92.1445 306.461 91.8021 306.777 91.4598 307.06C91.1175 307.342 90.7545 307.583 90.3707 307.782C89.987 307.973 89.5742 308.122 89.1323 308.23C88.6904 308.337 88.2027 308.39 87.6694 308.389C87.2777 308.388 86.8904 308.329 86.5073 308.211C86.1242 308.094 85.7788 307.91 85.471 307.659C85.1632 307.408 84.9139 307.087 84.7231 306.695C84.5406 306.295 84.45 305.815 84.4512 305.257C84.4524 304.715 84.6076 304.224 84.9169 303.783C85.2346 303.342 85.7229 302.964 86.3819 302.649C87.0409 302.325 87.8748 302.073 88.8836 301.892C89.8923 301.702 91.0926 301.592 92.4843 301.562L92.4875 300.099C92.4902 298.866 92.2256 297.907 91.6937 297.223C91.1619 296.538 90.371 296.195 89.321 296.192C88.696 296.191 88.1583 296.282 87.7079 296.464C87.2575 296.638 86.8821 296.837 86.5816 297.061C86.2811 297.278 86.039 297.477 85.8553 297.66C85.6799 297.835 85.5464 297.922 85.4547 297.922C85.3714 297.921 85.2965 297.875 85.23 297.784L85.1179 297.608ZM105.557 297.253C105.532 297.278 105.507 297.303 105.482 297.328C105.457 297.344 105.424 297.353 105.382 297.352C105.315 297.352 105.211 297.294 105.07 297.177C104.928 297.06 104.733 296.93 104.483 296.788C104.233 296.646 103.917 296.516 103.534 296.398C103.151 296.281 102.689 296.222 102.147 296.22C101.38 296.219 100.697 296.355 100.096 296.628C99.5038 296.894 98.9988 297.28 98.581 297.788C98.1716 298.295 97.8577 298.907 97.6395 299.623C97.4213 300.339 97.3112 301.147 97.3092 302.047C97.3072 302.972 97.4137 303.798 97.6288 304.523C97.8523 305.24 98.1635 305.845 98.5624 306.338C98.9696 306.83 99.4563 307.206 100.022 307.466C100.597 307.725 101.234 307.856 101.934 307.857C102.567 307.859 103.097 307.789 103.522 307.648C103.956 307.499 104.314 307.338 104.598 307.163C104.882 306.981 105.099 306.819 105.249 306.677C105.399 306.527 105.508 306.453 105.575 306.453C105.641 306.453 105.695 306.478 105.737 306.528L105.887 306.716C105.736 306.924 105.527 307.128 105.26 307.327C105.001 307.527 104.697 307.705 104.347 307.863C104.005 308.012 103.621 308.132 103.196 308.223C102.779 308.322 102.333 308.371 101.858 308.37C101.066 308.368 100.35 308.225 99.7089 307.94C99.0678 307.655 98.5187 307.242 98.0616 306.699C97.6128 306.156 97.2642 305.493 97.0159 304.709C96.7676 303.925 96.6446 303.038 96.6467 302.046C96.6488 301.096 96.7715 300.23 97.0149 299.447C97.2666 298.664 97.6264 297.998 98.0942 297.449C98.5621 296.892 99.1339 296.46 99.8096 296.153C100.485 295.846 101.256 295.693 102.123 295.695C102.89 295.697 103.573 295.823 104.172 296.075C104.772 296.318 105.288 296.64 105.72 297.041L105.557 297.253ZM118.69 308.256L118.04 308.255L118.064 296.905L110.502 296.889L110.482 305.751C110.482 306.134 110.531 306.464 110.63 306.739C110.73 307.006 110.863 307.227 111.029 307.402C111.195 307.578 111.391 307.707 111.615 307.791C111.849 307.867 112.099 307.905 112.365 307.905C112.69 307.906 112.974 307.856 113.216 307.757C113.466 307.658 113.679 307.55 113.854 307.433C114.029 307.317 114.171 307.209 114.279 307.109C114.388 307.01 114.467 306.96 114.517 306.96C114.559 306.96 114.605 306.985 114.655 307.035L114.817 307.273C114.675 307.448 114.508 307.606 114.316 307.747C114.132 307.888 113.928 308.013 113.702 308.121C113.477 308.22 113.244 308.299 113.002 308.357C112.76 308.414 112.514 308.443 112.264 308.442C111.497 308.441 110.898 308.231 110.465 307.814C110.033 307.388 109.818 306.708 109.82 305.775L109.839 296.887L107.914 296.883C107.756 296.883 107.677 296.82 107.677 296.695L107.678 296.47L109.853 296.375L110.038 291.638C110.047 291.588 110.068 291.542 110.101 291.5C110.134 291.45 110.18 291.425 110.239 291.425L110.514 291.426L110.503 296.389L118.715 296.406L118.69 308.256ZM119.289 291.308C119.289 291.416 119.263 291.52 119.213 291.62C119.163 291.72 119.096 291.811 119.013 291.895C118.937 291.969 118.846 292.032 118.737 292.081C118.637 292.123 118.533 292.144 118.425 292.143C118.308 292.143 118.195 292.122 118.087 292.08C117.987 292.03 117.896 291.967 117.813 291.892C117.738 291.808 117.676 291.717 117.626 291.617C117.584 291.516 117.564 291.412 117.564 291.304C117.564 291.071 117.648 290.871 117.815 290.704C117.991 290.53 118.195 290.443 118.428 290.443C118.537 290.444 118.641 290.469 118.741 290.519C118.849 290.561 118.94 290.624 119.015 290.707C119.098 290.782 119.165 290.874 119.215 290.983C119.264 291.083 119.289 291.191 119.289 291.308ZM127.99 295.752C128.865 295.754 129.64 295.909 130.314 296.219C130.997 296.521 131.571 296.951 132.036 297.51C132.502 298.061 132.854 298.729 133.094 299.513C133.334 300.297 133.453 301.168 133.451 302.126C133.449 303.084 133.326 303.955 133.083 304.738C132.84 305.512 132.484 306.174 132.016 306.723C131.548 307.272 130.972 307.696 130.288 307.994C129.613 308.284 128.837 308.429 127.962 308.427C127.087 308.425 126.309 308.277 125.626 307.984C124.952 307.683 124.382 307.256 123.916 306.705C123.451 306.154 123.098 305.491 122.858 304.715C122.618 303.932 122.499 303.061 122.501 302.102C122.503 301.144 122.626 300.273 122.869 299.491C123.113 298.708 123.468 298.042 123.936 297.493C124.404 296.936 124.976 296.508 125.651 296.209C126.335 295.902 127.115 295.75 127.99 295.752ZM127.964 307.902C128.764 307.903 129.464 307.767 130.064 307.494C130.665 307.22 131.166 306.829 131.567 306.322C131.976 305.815 132.282 305.207 132.483 304.499C132.685 303.791 132.787 303 132.789 302.125C132.791 301.25 132.692 300.454 132.494 299.736C132.295 299.019 131.993 298.406 131.585 297.897C131.186 297.379 130.687 296.983 130.088 296.706C129.489 296.422 128.789 296.278 127.989 296.277C127.189 296.275 126.489 296.415 125.888 296.697C125.287 296.971 124.782 297.366 124.373 297.881C123.972 298.389 123.67 299.001 123.469 299.717C123.267 300.433 123.166 301.229 123.164 302.104C123.162 302.979 123.26 303.771 123.458 304.479C123.657 305.188 123.956 305.797 124.355 306.306C124.762 306.815 125.265 307.208 125.864 307.485C126.464 307.761 127.164 307.9 127.964 307.902ZM137.752 298.36C138.329 297.57 139.014 296.942 139.806 296.477C140.607 296.012 141.479 295.781 142.42 295.783C143.104 295.785 143.699 295.894 144.207 296.112C144.723 296.321 145.148 296.627 145.48 297.027C145.821 297.42 146.074 297.904 146.239 298.479C146.413 299.054 146.499 299.704 146.498 300.429L146.48 308.317L145.818 308.315L145.835 300.428C145.837 299.786 145.767 299.211 145.626 298.703C145.486 298.194 145.266 297.764 144.967 297.414C144.676 297.055 144.31 296.783 143.868 296.599C143.427 296.406 142.907 296.309 142.307 296.308C141.407 296.306 140.573 296.542 139.805 297.015C139.046 297.48 138.369 298.128 137.776 298.96L137.755 308.298L137.093 308.296L137.12 295.972L137.432 295.972C137.591 295.973 137.674 296.056 137.682 296.223L137.752 298.36Z" fill="black"/>
<path d="M78.4233 459.419C78.3731 459.502 78.3022 459.544 78.2105 459.544C78.1188 459.543 77.9898 459.464 77.8235 459.305C77.6656 459.138 77.441 458.954 77.1497 458.754C76.8585 458.553 76.4839 458.373 76.0259 458.214C75.5679 458.046 75.0014 457.962 74.3264 457.96C73.6431 457.959 73.0346 458.061 72.5008 458.269C71.9753 458.468 71.5331 458.742 71.174 459.091C70.8149 459.44 70.5432 459.844 70.3588 460.301C70.1745 460.751 70.0818 461.226 70.0807 461.726C70.0793 462.368 70.2073 462.905 70.4647 463.339C70.7221 463.765 71.063 464.124 71.4874 464.416C71.9117 464.709 72.3904 464.956 72.9233 465.157C73.4645 465.358 74.0182 465.555 74.5845 465.748C75.1508 465.933 75.7003 466.134 76.2332 466.352C76.7744 466.561 77.2571 466.829 77.6814 467.155C78.1057 467.481 78.4465 467.886 78.7038 468.37C78.9611 468.845 79.089 469.437 79.0874 470.146C79.0858 470.871 78.9594 471.554 78.708 472.195C78.4649 472.828 78.1054 473.381 77.6293 473.855C77.1617 474.321 76.5859 474.69 75.9019 474.964C75.2263 475.229 74.4552 475.36 73.5886 475.359C72.9969 475.357 72.4595 475.302 71.9764 475.193C71.5016 475.092 71.0603 474.945 70.6524 474.752C70.2528 474.551 69.8825 474.309 69.5415 474.025C69.2087 473.741 68.8886 473.419 68.5811 473.06L68.7441 472.811C68.7859 472.769 68.8193 472.74 68.8443 472.723C68.8777 472.698 68.9235 472.686 68.9819 472.686C69.0402 472.686 69.1193 472.74 69.219 472.849C69.3271 472.949 69.4643 473.079 69.6307 473.237C69.797 473.388 69.9966 473.555 70.2296 473.739C70.4625 473.914 70.7372 474.082 71.0535 474.241C71.3782 474.391 71.7487 474.521 72.1651 474.63C72.5899 474.731 73.069 474.782 73.6023 474.784C74.3606 474.785 75.0401 474.67 75.6406 474.438C76.2411 474.198 76.746 473.874 77.1552 473.466C77.5728 473.051 77.8905 472.568 78.1083 472.018C78.3262 471.469 78.4358 470.882 78.4372 470.257C78.4386 469.59 78.3107 469.04 78.0533 468.606C77.7959 468.172 77.455 467.809 77.0306 467.516C76.6146 467.223 76.136 466.981 75.5947 466.788C75.0535 466.587 74.4997 466.398 73.9335 466.222C73.3755 466.037 72.826 465.84 72.2847 465.631C71.7435 465.413 71.2608 465.141 70.8365 464.815C70.4206 464.481 70.084 464.072 69.8267 463.588C69.5694 463.096 69.4416 462.483 69.4432 461.75C69.4444 461.175 69.554 460.625 69.7718 460.1C69.9896 459.576 70.3031 459.114 70.7123 458.715C71.1298 458.307 71.6389 457.983 72.2394 457.743C72.8483 457.503 73.5444 457.383 74.3277 457.385C75.211 457.387 75.9899 457.53 76.6643 457.815C77.347 458.1 77.9835 458.543 78.5739 459.144L78.4233 459.419ZM82.4653 475.178L82.4922 462.853L82.8047 462.854C82.963 462.854 83.0462 462.937 83.0541 463.104L83.1246 465.179C83.6096 464.414 84.1776 463.802 84.8286 463.346C85.4879 462.889 86.2134 462.661 87.0051 462.663C87.9468 462.665 88.692 462.95 89.2407 463.518C89.7895 464.085 90.1461 464.882 90.3105 465.907C90.4367 465.358 90.6294 464.883 90.8886 464.484C91.1562 464.076 91.4653 463.739 91.8159 463.473C92.1664 463.199 92.5502 463 92.9672 462.876C93.3841 462.743 93.8134 462.678 94.2551 462.679C94.8468 462.68 95.3799 462.785 95.8544 462.995C96.3373 463.196 96.745 463.492 97.0775 463.885C97.4099 464.277 97.6631 464.761 97.8368 465.336C98.0189 465.912 98.1091 466.574 98.1075 467.324L98.0903 475.212L97.4278 475.21L97.445 467.323C97.4479 465.99 97.1626 464.972 96.5891 464.271C96.024 463.562 95.2123 463.206 94.1539 463.203C93.6873 463.202 93.2371 463.289 92.8034 463.463C92.378 463.629 91.9983 463.886 91.6642 464.235C91.3384 464.576 91.075 465.005 90.8739 465.521C90.6728 466.029 90.5715 466.625 90.57 467.308L90.5528 475.196L89.8903 475.194L89.9075 467.307C89.9103 465.998 89.6542 464.985 89.1391 464.267C88.624 463.55 87.8665 463.19 86.8665 463.187C86.1165 463.186 85.4285 463.418 84.8024 463.883C84.1764 464.348 83.625 464.989 83.1483 465.804L83.1278 475.179L82.4653 475.178ZM109.389 469.061C106.872 469.139 105.009 469.448 103.799 469.987C102.598 470.526 101.996 471.287 101.994 472.27C101.993 472.729 102.067 473.125 102.217 473.458C102.374 473.792 102.578 474.072 102.827 474.297C103.085 474.514 103.376 474.678 103.701 474.787C104.026 474.887 104.359 474.938 104.701 474.939C105.234 474.94 105.722 474.883 106.164 474.767C106.606 474.643 107.014 474.477 107.39 474.27C107.765 474.062 108.116 473.817 108.441 473.534C108.767 473.252 109.08 472.953 109.381 472.636L109.389 469.061ZM102.023 464.645C102.641 464.013 103.288 463.532 103.964 463.2C104.64 462.868 105.411 462.703 106.278 462.705C106.919 462.706 107.477 462.811 107.952 463.021C108.426 463.222 108.817 463.514 109.125 463.898C109.441 464.282 109.673 464.75 109.822 465.3C109.971 465.842 110.044 466.455 110.043 467.138L110.025 475.238L109.8 475.237C109.634 475.237 109.538 475.149 109.513 474.974L109.392 473.149C109.05 473.498 108.708 473.814 108.365 474.097C108.023 474.379 107.66 474.62 107.276 474.819C106.892 475.01 106.48 475.159 106.038 475.267C105.596 475.374 105.108 475.427 104.575 475.426C104.183 475.425 103.796 475.366 103.413 475.249C103.03 475.131 102.684 474.947 102.376 474.696C102.069 474.446 101.819 474.124 101.628 473.732C101.446 473.332 101.355 472.852 101.357 472.294C101.358 471.752 101.513 471.261 101.822 470.82C102.14 470.379 102.628 470.001 103.287 469.686C103.946 469.362 104.78 469.11 105.789 468.929C106.798 468.739 107.998 468.629 109.39 468.599L109.393 467.137C109.396 465.903 109.131 464.944 108.599 464.26C108.067 463.575 107.276 463.232 106.226 463.23C105.601 463.228 105.064 463.319 104.613 463.501C104.163 463.675 103.787 463.874 103.487 464.099C103.187 464.315 102.944 464.514 102.761 464.697C102.585 464.872 102.452 464.959 102.36 464.959C102.277 464.959 102.202 464.913 102.135 464.821L102.023 464.645ZM114.958 466.224C115.143 465.666 115.361 465.17 115.612 464.738C115.863 464.305 116.151 463.939 116.476 463.639C116.81 463.34 117.186 463.116 117.603 462.967C118.02 462.809 118.491 462.731 119.016 462.732C119.258 462.733 119.503 462.754 119.753 462.797C120.012 462.83 120.241 462.906 120.44 463.023L120.364 463.41C120.331 463.502 120.273 463.548 120.189 463.548C120.098 463.547 119.956 463.518 119.764 463.459C119.581 463.392 119.306 463.358 118.94 463.357C118.423 463.356 117.96 463.438 117.552 463.604C117.151 463.762 116.792 463.998 116.475 464.314C116.166 464.63 115.89 465.026 115.647 465.5C115.405 465.975 115.183 466.528 114.981 467.161L114.964 475.249L114.301 475.247L114.328 462.922L114.628 462.923C114.795 462.923 114.882 463.015 114.89 463.198L114.958 466.224ZM126.142 475.473C125.375 475.471 124.776 475.262 124.344 474.844C123.911 474.418 123.696 473.738 123.698 472.805L123.717 463.918L121.792 463.913C121.634 463.913 121.555 463.85 121.555 463.725L121.556 463.5L123.718 463.418L123.916 458.668C123.925 458.618 123.946 458.572 123.979 458.531C124.012 458.481 124.058 458.456 124.117 458.456L124.392 458.457L124.381 463.419L128.456 463.428L128.455 463.928L124.38 463.919L124.361 472.782C124.36 473.165 124.409 473.494 124.508 473.769C124.608 474.036 124.741 474.257 124.907 474.433C125.073 474.608 125.269 474.738 125.494 474.822C125.727 474.897 125.977 474.935 126.243 474.936C126.568 474.936 126.852 474.887 127.094 474.788C127.344 474.688 127.557 474.58 127.732 474.464C127.907 474.348 128.049 474.24 128.158 474.14C128.266 474.04 128.345 473.99 128.395 473.99C128.437 473.99 128.483 474.016 128.533 474.066L128.695 474.304C128.553 474.478 128.386 474.636 128.194 474.777C128.01 474.919 127.806 475.043 127.58 475.151C127.355 475.251 127.122 475.329 126.88 475.387C126.638 475.445 126.392 475.474 126.142 475.473ZM53.44 498.815L49.4363 489.019C49.3451 488.793 49.2582 488.543 49.1754 488.268C49.0998 488.543 49.0118 488.793 48.9113 489.017L44.865 498.796L53.44 498.815ZM56.7513 505.122L56.2138 505.121C56.0888 505.121 55.9972 505.05 55.9392 504.908L53.6638 499.34L44.6389 499.321L42.3393 504.878C42.2973 505.02 42.2013 505.09 42.0513 505.09L41.5388 505.089L48.852 487.53L49.5145 487.531L56.7513 505.122ZM60.1312 487.054L60.0919 505.129L59.4419 505.128L59.4812 487.053L60.1312 487.054ZM68.5253 500.01C69.1003 500.011 69.613 499.929 70.0633 499.763C70.522 499.598 70.9059 499.365 71.2149 499.066C71.5322 498.758 71.7705 498.396 71.9297 497.98C72.0973 497.555 72.1817 497.085 72.1828 496.568C72.1839 496.06 72.1016 495.593 71.9359 495.168C71.7701 494.742 71.5292 494.379 71.2132 494.078C70.9055 493.778 70.5227 493.544 70.0648 493.376C69.6151 493.208 69.107 493.124 68.5403 493.123C67.9736 493.121 67.4651 493.204 67.0148 493.369C66.5644 493.535 66.1806 493.767 65.8632 494.067C65.5543 494.366 65.316 494.728 65.1484 495.153C64.9808 495.577 64.8964 496.044 64.8953 496.552C64.8942 497.069 64.9765 497.54 65.1423 497.965C65.308 498.382 65.5447 498.745 65.8524 499.054C66.1684 499.355 66.5512 499.589 67.0009 499.757C67.4505 499.924 67.9586 500.009 68.5253 500.01ZM73.4996 506.083C73.5005 505.65 73.3888 505.3 73.1644 505.033C72.9483 504.766 72.6571 504.561 72.2907 504.418C71.9327 504.268 71.5163 504.162 71.0414 504.103C70.5665 504.044 70.0708 504.001 69.5542 503.975C69.0459 503.949 68.5335 503.923 68.0168 503.897C67.5086 503.87 67.0337 503.815 66.5922 503.731C66.2252 503.863 65.8874 504.021 65.5787 504.204C65.2783 504.378 65.0154 504.577 64.7899 504.802C64.5727 505.027 64.4013 505.276 64.2757 505.551C64.1501 505.826 64.087 506.125 64.0863 506.45C64.0854 506.85 64.1888 507.226 64.3963 507.576C64.6039 507.927 64.9032 508.227 65.2944 508.478C65.6938 508.737 66.1767 508.943 66.743 509.094C67.3094 509.245 67.9509 509.321 68.6675 509.323C69.3175 509.324 69.9344 509.247 70.518 509.089C71.1017 508.932 71.6147 508.709 72.057 508.418C72.4993 508.135 72.85 507.795 73.1092 507.395C73.3684 506.996 73.4986 506.558 73.4996 506.083ZM74.3147 493.41L74.3143 493.61C74.3141 493.677 74.289 493.731 74.2389 493.773C74.1888 493.814 74.1263 493.839 74.0512 493.847L71.8386 493.93C72.1461 494.272 72.3828 494.664 72.5485 495.106C72.7142 495.548 72.7965 496.032 72.7953 496.557C72.794 497.149 72.6887 497.686 72.4793 498.169C72.2783 498.652 71.9899 499.068 71.6141 499.417C71.2467 499.758 70.8003 500.023 70.2749 500.214C69.7495 500.396 69.1659 500.486 68.5243 500.485C67.7409 500.483 67.0496 500.344 66.4502 500.068C66.058 500.292 65.7408 500.567 65.4984 500.891C65.2644 501.207 65.147 501.511 65.1464 501.803C65.1455 502.194 65.2741 502.495 65.5319 502.704C65.7898 502.912 66.127 503.067 66.5434 503.168C66.9599 503.269 67.4347 503.337 67.968 503.371C68.5096 503.398 69.0595 503.424 69.6178 503.45C70.1844 503.476 70.7343 503.523 71.2675 503.591C71.809 503.659 72.2879 503.781 72.7042 503.957C73.1205 504.133 73.4575 504.383 73.7151 504.709C73.9727 505.034 74.1009 505.468 74.0998 506.01C74.0987 506.51 73.9685 506.989 73.7091 507.446C73.4581 507.913 73.0947 508.32 72.619 508.669C72.1432 509.018 71.5676 509.296 70.8921 509.503C70.225 509.718 69.4789 509.825 68.6539 509.823C67.8123 509.821 67.0666 509.732 66.417 509.556C65.7757 509.379 65.2346 509.136 64.7936 508.827C64.3609 508.526 64.0325 508.175 63.8084 507.775C63.5926 507.374 63.4852 506.949 63.4862 506.499C63.4876 505.824 63.7181 505.241 64.1775 504.751C64.6369 504.252 65.2627 503.87 66.055 503.605C65.6053 503.47 65.2432 503.274 64.9688 503.015C64.7027 502.756 64.5701 502.389 64.5712 501.914C64.5715 501.747 64.6052 501.572 64.6723 501.389C64.7477 501.198 64.8481 501.015 64.9735 500.84C65.1072 500.657 65.2659 500.482 65.4496 500.316C65.6333 500.15 65.842 500.004 66.0756 499.88C65.5013 499.545 65.0565 499.094 64.741 498.527C64.4256 497.951 64.2687 497.288 64.2704 496.538C64.2716 495.955 64.3728 495.426 64.5738 494.951C64.7749 494.469 65.0591 494.057 65.4265 493.716C65.8023 493.367 66.2529 493.097 66.7783 492.906C67.3037 492.716 67.8914 492.621 68.5414 492.623C69.0831 492.624 69.5787 492.692 70.0285 492.826C70.4865 492.96 70.8902 493.153 71.2397 493.403L74.3147 493.41ZM81.8664 492.652C82.7414 492.654 83.516 492.809 84.1903 493.119C84.873 493.421 85.4471 493.851 85.9125 494.41C86.378 494.961 86.7307 495.629 86.9707 496.413C87.2106 497.197 87.3296 498.068 87.3275 499.026C87.3254 499.984 87.2027 500.855 86.9593 501.638C86.716 502.412 86.3603 503.074 85.8925 503.623C85.4246 504.172 84.8487 504.596 84.1647 504.894C83.4891 505.184 82.7138 505.329 81.8388 505.327C80.9638 505.325 80.1849 505.177 79.5022 504.884C78.8279 504.583 78.258 504.156 77.7925 503.605C77.327 503.054 76.9743 502.391 76.7343 501.615C76.4944 500.832 76.3754 499.961 76.3775 499.002C76.3796 498.044 76.5023 497.173 76.7457 496.39C76.9891 495.608 77.3447 494.942 77.8126 494.393C78.2804 493.835 78.8522 493.408 79.5279 493.109C80.2119 492.802 80.9914 492.65 81.8664 492.652ZM81.8399 504.802C82.6399 504.803 83.3402 504.667 83.9408 504.394C84.5414 504.12 85.0422 503.729 85.4434 503.222C85.8528 502.715 86.1583 502.107 86.3598 501.399C86.5614 500.691 86.6631 499.9 86.665 499.025C86.6669 498.15 86.5686 497.354 86.3702 496.636C86.1718 495.919 85.8689 495.306 85.4617 494.797C85.0628 494.279 84.5637 493.883 83.9643 493.606C83.3649 493.322 82.6652 493.178 81.8652 493.177C81.0652 493.175 80.3649 493.315 79.7643 493.597C79.1637 493.871 78.6587 494.265 78.2492 494.781C77.8481 495.289 77.5468 495.901 77.3452 496.617C77.1437 497.333 77.0419 498.129 77.04 499.004C77.0381 499.879 77.1364 500.671 77.3348 501.379C77.5333 502.088 77.832 502.697 78.2309 503.206C78.6381 503.715 79.1414 504.108 79.7408 504.385C80.3402 504.661 81.0399 504.8 81.8399 504.802ZM91.6265 496.173C91.811 495.615 92.0288 495.12 92.2797 494.687C92.5307 494.254 92.819 493.888 93.1446 493.589C93.4786 493.289 93.8541 493.065 94.2711 492.916C94.6881 492.759 95.1591 492.681 95.6841 492.682C95.9258 492.682 96.1716 492.704 96.4215 492.746C96.6797 492.78 96.9087 492.855 97.1085 492.972L97.0326 493.36C96.9991 493.451 96.9407 493.497 96.8573 493.497C96.7657 493.497 96.6241 493.467 96.4325 493.408C96.2493 493.341 95.9744 493.307 95.6077 493.307C95.0911 493.305 94.6284 493.388 94.2197 493.554C93.8194 493.711 93.4605 493.948 93.1432 494.264C92.8341 494.58 92.5583 494.975 92.3156 495.449C92.0729 495.924 91.8508 496.478 91.6494 497.11L91.6318 505.198L90.9693 505.196L90.9962 492.872L91.2962 492.872C91.4628 492.873 91.5501 492.964 91.5581 493.148L91.6265 496.173ZM100.488 492.892L100.461 505.217L99.8107 505.216L99.8376 492.891L100.488 492.892ZM101.035 488.443C101.034 488.56 101.009 488.668 100.959 488.768C100.909 488.868 100.842 488.96 100.758 489.043C100.683 489.118 100.591 489.18 100.483 489.23C100.383 489.271 100.279 489.292 100.17 489.291C99.9371 489.291 99.7331 489.207 99.5584 489.04C99.3922 488.865 99.3093 488.665 99.3098 488.44C99.3103 488.206 99.394 488.006 99.5611 487.84C99.7364 487.666 99.9408 487.578 100.174 487.579C100.282 487.579 100.387 487.604 100.486 487.655C100.595 487.697 100.686 487.759 100.761 487.843C100.844 487.918 100.911 488.01 100.96 488.118C101.01 488.218 101.035 488.327 101.035 488.443ZM108.157 505.434C107.39 505.432 106.791 505.223 106.358 504.805C105.926 504.379 105.711 503.699 105.713 502.766L105.732 493.879L103.807 493.874C103.649 493.874 103.57 493.811 103.57 493.686L103.571 493.461L105.733 493.379L105.931 488.629C105.939 488.579 105.96 488.533 105.994 488.492C106.027 488.442 106.073 488.417 106.131 488.417L106.406 488.418L106.396 493.38L110.471 493.389L110.47 493.889L106.395 493.88L106.375 502.743C106.374 503.126 106.424 503.455 106.523 503.73C106.623 503.997 106.755 504.218 106.922 504.394C107.088 504.569 107.284 504.699 107.508 504.782C107.742 504.858 107.991 504.896 108.258 504.897C108.583 504.897 108.867 504.848 109.108 504.748C109.359 504.649 109.571 504.541 109.747 504.425C109.922 504.309 110.064 504.201 110.172 504.101C110.281 504.001 110.36 503.951 110.41 503.951C110.452 503.951 110.498 503.976 110.548 504.027L110.71 504.264C110.567 504.439 110.4 504.597 110.208 504.738C110.025 504.88 109.82 505.004 109.595 505.112C109.37 505.212 109.136 505.29 108.895 505.348C108.653 505.406 108.407 505.434 108.157 505.434ZM114.041 495.272C114.618 494.498 115.303 493.883 116.095 493.426C116.888 492.961 117.751 492.73 118.684 492.732C119.368 492.733 119.963 492.843 120.471 493.061C120.987 493.27 121.412 493.575 121.744 493.976C122.085 494.368 122.338 494.852 122.503 495.428C122.677 496.003 122.763 496.653 122.762 497.378L122.744 505.266L122.082 505.264L122.099 497.377C122.101 496.735 122.031 496.16 121.89 495.651C121.75 495.143 121.53 494.713 121.231 494.362C120.94 494.003 120.574 493.732 120.132 493.547C119.691 493.355 119.171 493.258 118.571 493.257C117.671 493.255 116.837 493.49 116.069 493.964C115.31 494.429 114.633 495.077 114.04 495.909L114.019 505.247L113.357 505.245L113.396 487.17L114.059 487.172L114.041 495.272ZM127.004 505.275L127.031 492.95L127.344 492.951C127.502 492.951 127.585 493.035 127.593 493.201L127.664 495.276C128.149 494.511 128.717 493.899 129.368 493.443C130.027 492.986 130.753 492.758 131.544 492.76C132.486 492.762 133.231 493.047 133.78 493.615C134.329 494.183 134.685 494.979 134.85 496.004C134.976 495.455 135.169 494.98 135.428 494.581C135.695 494.173 136.004 493.836 136.355 493.57C136.706 493.296 137.089 493.097 137.506 492.973C137.923 492.84 138.352 492.775 138.794 492.776C139.386 492.777 139.919 492.882 140.393 493.092C140.876 493.293 141.284 493.589 141.617 493.982C141.949 494.374 142.202 494.858 142.376 495.433C142.558 496.009 142.648 496.671 142.647 497.421L142.629 505.309L141.967 505.308L141.984 497.42C141.987 496.087 141.702 495.069 141.128 494.368C140.563 493.659 139.751 493.303 138.693 493.3C138.226 493.299 137.776 493.386 137.342 493.56C136.917 493.726 136.537 493.983 136.203 494.332C135.878 494.673 135.614 495.102 135.413 495.618C135.212 496.126 135.111 496.722 135.109 497.405L135.092 505.293L134.429 505.291L134.447 497.404C134.449 496.095 134.193 495.082 133.678 494.364C133.163 493.647 132.406 493.287 131.406 493.284C130.656 493.283 129.968 493.515 129.342 493.98C128.715 494.445 128.164 495.086 127.687 495.901L127.667 505.276L127.004 505.275ZM153.476 494.27C153.434 494.345 153.371 494.382 153.288 494.382C153.213 494.382 153.105 494.328 152.964 494.219C152.83 494.102 152.643 493.981 152.402 493.855C152.16 493.721 151.857 493.6 151.49 493.491C151.132 493.373 150.686 493.314 150.153 493.313C149.661 493.312 149.211 493.386 148.802 493.535C148.402 493.676 148.056 493.867 147.764 494.108C147.472 494.349 147.246 494.631 147.087 494.956C146.928 495.281 146.848 495.618 146.847 495.968C146.846 496.385 146.946 496.735 147.145 497.019C147.353 497.303 147.623 497.545 147.956 497.746C148.289 497.938 148.668 498.105 149.092 498.248C149.517 498.382 149.95 498.521 150.391 498.663C150.833 498.798 151.266 498.944 151.69 499.104C152.115 499.263 152.494 499.46 152.827 499.694C153.159 499.928 153.425 500.216 153.625 500.558C153.832 500.9 153.936 501.321 153.934 501.821C153.933 502.338 153.841 502.821 153.656 503.27C153.472 503.72 153.2 504.115 152.841 504.456C152.49 504.789 152.057 505.05 151.54 505.241C151.031 505.431 150.447 505.526 149.789 505.525C149.347 505.524 148.947 505.485 148.589 505.409C148.231 505.342 147.898 505.245 147.59 505.12C147.282 504.986 146.995 504.827 146.728 504.643C146.462 504.459 146.204 504.254 145.955 504.029L146.118 503.817C146.151 503.775 146.18 503.746 146.205 503.729C146.239 503.704 146.289 503.692 146.355 503.692C146.439 503.692 146.555 503.763 146.705 503.905C146.863 504.039 147.071 504.189 147.329 504.357C147.595 504.524 147.928 504.679 148.328 504.821C148.728 504.956 149.219 505.023 149.802 505.025C150.377 505.026 150.882 504.948 151.315 504.79C151.758 504.625 152.125 504.4 152.417 504.118C152.718 503.835 152.943 503.506 153.094 503.132C153.245 502.749 153.321 502.345 153.322 501.92C153.323 501.47 153.219 501.095 153.012 500.794C152.812 500.494 152.546 500.243 152.213 500.042C151.88 499.833 151.502 499.657 151.077 499.515C150.652 499.372 150.219 499.234 149.778 499.1C149.336 498.965 148.903 498.823 148.479 498.672C148.054 498.512 147.675 498.32 147.343 498.094C147.01 497.86 146.74 497.576 146.532 497.242C146.333 496.909 146.234 496.492 146.235 495.992C146.236 495.575 146.328 495.175 146.512 494.792C146.705 494.401 146.972 494.06 147.314 493.769C147.657 493.47 148.066 493.233 148.541 493.059C149.025 492.885 149.562 492.799 150.154 492.8C150.871 492.802 151.504 492.903 152.053 493.104C152.603 493.306 153.123 493.623 153.614 494.058L153.476 494.27Z" fill="black"/>
<path d="M463.888 213.062C464.146 212.963 464.275 212.674 464.175 212.416L462.559 208.216C462.46 207.959 462.17 207.83 461.913 207.929C461.655 208.029 461.527 208.318 461.626 208.576L463.062 212.309L459.329 213.745C459.072 213.845 458.943 214.134 459.042 214.392C459.142 214.649 459.431 214.778 459.689 214.679L463.888 213.062ZM270.797 127.457L463.506 213.053L463.912 212.139L271.203 126.543L270.797 127.457Z" fill="black"/>
<path d="M463.972 290.368C464.171 290.177 464.178 289.86 463.987 289.661L460.872 286.414C460.681 286.214 460.364 286.208 460.165 286.399C459.965 286.59 459.959 286.907 460.15 287.106L462.919 289.993L460.032 292.762C459.833 292.953 459.826 293.269 460.018 293.469C460.209 293.668 460.525 293.674 460.725 293.483L463.972 290.368ZM270.99 286.5L463.616 290.507L463.636 289.507L271.01 285.5L270.99 286.5Z" fill="black"/>
<path d="M472.991 342.172C473.071 341.907 472.922 341.628 472.657 341.548L468.35 340.246C468.085 340.166 467.806 340.316 467.727 340.58C467.647 340.845 467.796 341.124 468.061 341.204L471.889 342.361L470.732 346.19C470.652 346.454 470.802 346.733 471.066 346.813C471.33 346.893 471.61 346.743 471.689 346.479L472.991 342.172ZM271.236 450.441L472.749 342.468L472.277 341.586L270.764 449.559L271.236 450.441Z" fill="black"/>
<ellipse opacity="0.6" cx="723.084" cy="309.572" rx="202.5" ry="61" transform="rotate(0.124747 723.084 309.572)" fill="#FAD744"/>
<ellipse opacity="0.6" cx="765.084" cy="309.664" rx="202.5" ry="61" transform="rotate(0.124747 765.084 309.664)" fill="#FB6542"/>
<ellipse opacity="0.6" cx="802.071" cy="315.744" rx="202.5" ry="61" transform="rotate(0.124747 802.071 315.744)" fill="#2B3252"/>
<path d="M743.203 310.616L742.515 310.615L742.554 293.04L743.241 293.041L743.203 310.616ZM748.007 310.627L748.034 298.302L748.346 298.302C748.505 298.303 748.588 298.386 748.596 298.553L748.666 300.628C749.151 299.862 749.719 299.251 750.37 298.794C751.029 298.337 751.755 298.11 752.547 298.111C753.488 298.113 754.234 298.398 754.782 298.966C755.331 299.534 755.688 300.331 755.852 301.356C755.978 300.806 756.171 300.332 756.43 299.932C756.698 299.525 757.007 299.188 757.357 298.922C757.708 298.648 758.092 298.449 758.509 298.324C758.926 298.192 759.355 298.126 759.797 298.127C760.388 298.129 760.921 298.234 761.396 298.443C761.879 298.644 762.287 298.941 762.619 299.333C762.951 299.726 763.205 300.21 763.378 300.785C763.56 301.36 763.651 302.023 763.649 302.773L763.632 310.661L762.969 310.659L762.987 302.772C762.989 301.438 762.704 300.421 762.131 299.72C761.566 299.01 760.754 298.654 759.695 298.652C759.229 298.651 758.779 298.738 758.345 298.912C757.92 299.077 757.54 299.335 757.206 299.684C756.88 300.025 756.617 300.454 756.415 300.97C756.214 301.478 756.113 302.073 756.112 302.757L756.094 310.644L755.432 310.643L755.449 302.755C755.452 301.447 755.196 300.434 754.681 299.716C754.166 298.998 753.408 298.638 752.408 298.636C751.658 298.634 750.97 298.866 750.344 299.332C749.718 299.797 749.167 300.437 748.69 301.253L748.669 310.628L748.007 310.627ZM767.904 310.67L767.931 298.345L768.244 298.346C768.402 298.346 768.485 298.429 768.493 298.596L768.564 300.671C769.049 299.906 769.617 299.294 770.268 298.838C770.927 298.381 771.652 298.153 772.444 298.155C773.386 298.157 774.131 298.442 774.68 299.01C775.228 299.577 775.585 300.374 775.75 301.399C775.876 300.85 776.068 300.375 776.328 299.976C776.595 299.568 776.904 299.231 777.255 298.965C777.605 298.691 777.989 298.492 778.406 298.368C778.823 298.235 779.252 298.17 779.694 298.171C780.286 298.172 780.819 298.277 781.293 298.487C781.776 298.688 782.184 298.984 782.516 299.377C782.849 299.769 783.102 300.253 783.276 300.828C783.458 301.404 783.548 302.066 783.546 302.816L783.529 310.704L782.867 310.702L782.884 302.815C782.887 301.482 782.602 300.464 782.028 299.763C781.463 299.054 780.651 298.698 779.593 298.695C779.126 298.694 778.676 298.781 778.242 298.955C777.817 299.121 777.437 299.378 777.103 299.727C776.777 300.068 776.514 300.497 776.313 301.013C776.112 301.521 776.01 302.117 776.009 302.8L775.992 310.688L775.329 310.686L775.346 302.799C775.349 301.49 775.093 300.477 774.578 299.759C774.063 299.042 773.305 298.682 772.305 298.679C771.555 298.678 770.867 298.91 770.241 299.375C769.615 299.84 769.064 300.481 768.587 301.296L768.567 310.671L767.904 310.67ZM788.629 298.39L788.602 310.715L787.952 310.714L787.979 298.389L788.629 298.39ZM789.176 293.941C789.175 294.058 789.15 294.166 789.1 294.266C789.05 294.366 788.983 294.457 788.899 294.541C788.824 294.615 788.732 294.678 788.624 294.727C788.524 294.769 788.42 294.79 788.311 294.789C788.078 294.789 787.874 294.705 787.699 294.538C787.533 294.363 787.45 294.162 787.451 293.937C787.451 293.704 787.535 293.504 787.702 293.338C787.877 293.163 788.082 293.076 788.315 293.077C788.423 293.077 788.528 293.102 788.627 293.152C788.736 293.194 788.827 293.257 788.902 293.341C788.985 293.416 789.052 293.508 789.101 293.616C789.151 293.716 789.176 293.825 789.176 293.941ZM797.047 305.596C797.622 305.597 798.135 305.515 798.585 305.349C799.044 305.184 799.428 304.951 799.737 304.652C800.054 304.344 800.292 303.982 800.451 303.566C800.619 303.141 800.703 302.67 800.705 302.154C800.706 301.645 800.623 301.179 800.458 300.753C800.292 300.328 800.051 299.965 799.735 299.664C799.427 299.364 799.044 299.129 798.587 298.962C798.137 298.794 797.629 298.71 797.062 298.708C796.495 298.707 795.987 298.789 795.537 298.955C795.086 299.121 794.702 299.353 794.385 299.653C794.076 299.952 793.838 300.314 793.67 300.738C793.503 301.163 793.418 301.63 793.417 302.138C793.416 302.655 793.498 303.126 793.664 303.551C793.83 303.968 794.066 304.331 794.374 304.64C794.69 304.941 795.073 305.175 795.523 305.343C795.972 305.51 796.48 305.595 797.047 305.596ZM802.021 311.669C802.022 311.236 801.911 310.886 801.686 310.618C801.47 310.351 801.179 310.147 800.812 310.004C800.454 309.853 800.038 309.748 799.563 309.689C799.088 309.629 798.593 309.587 798.076 309.561C797.568 309.534 797.055 309.508 796.539 309.482C796.03 309.456 795.555 309.401 795.114 309.317C794.747 309.449 794.409 309.607 794.1 309.789C793.8 309.964 793.537 310.163 793.312 310.388C793.094 310.612 792.923 310.862 792.797 311.137C792.672 311.411 792.609 311.711 792.608 312.036C792.607 312.436 792.711 312.811 792.918 313.162C793.126 313.512 793.425 313.813 793.816 314.064C794.216 314.323 794.698 314.528 795.265 314.679C795.831 314.831 796.473 314.907 797.189 314.909C797.839 314.91 798.456 314.832 799.04 314.675C799.623 314.518 800.136 314.294 800.579 314.004C801.021 313.721 801.372 313.38 801.631 312.981C801.89 312.581 802.02 312.144 802.021 311.669ZM802.836 298.996L802.836 299.196C802.836 299.263 802.811 299.317 802.761 299.358C802.711 299.4 802.648 299.425 802.573 299.433L800.36 299.516C800.668 299.858 800.905 300.25 801.07 300.692C801.236 301.134 801.318 301.618 801.317 302.143C801.316 302.734 801.21 303.272 801.001 303.754C800.8 304.237 800.512 304.653 800.136 305.003C799.768 305.343 799.322 305.609 798.797 305.8C798.271 305.982 797.688 306.072 797.046 306.071C796.263 306.069 795.571 305.93 794.972 305.654C794.58 305.878 794.263 306.152 794.02 306.477C793.786 306.793 793.669 307.097 793.668 307.388C793.667 307.78 793.796 308.08 794.054 308.289C794.312 308.498 794.649 308.653 795.065 308.754C795.482 308.855 795.956 308.923 796.49 308.957C797.031 308.983 797.581 309.01 798.14 309.036C798.706 309.062 799.256 309.109 799.789 309.177C800.331 309.245 800.81 309.367 801.226 309.542C801.642 309.718 801.979 309.969 802.237 310.295C802.494 310.62 802.623 311.054 802.622 311.595C802.62 312.095 802.49 312.574 802.231 313.032C801.98 313.498 801.616 313.906 801.141 314.255C800.665 314.604 800.089 314.882 799.414 315.089C798.747 315.304 798.001 315.41 797.176 315.409C796.334 315.407 795.588 315.318 794.939 315.141C794.297 314.965 793.756 314.722 793.315 314.413C792.883 314.112 792.554 313.761 792.33 313.361C792.114 312.96 792.007 312.535 792.008 312.085C792.009 311.41 792.24 310.827 792.699 310.336C793.159 309.837 793.784 309.455 794.577 309.19C794.127 309.056 793.765 308.86 793.491 308.601C793.224 308.342 793.092 307.975 793.093 307.5C793.093 307.333 793.127 307.158 793.194 306.975C793.269 306.783 793.37 306.6 793.495 306.426C793.629 306.243 793.788 306.068 793.971 305.902C794.155 305.735 794.364 305.59 794.597 305.466C794.023 305.131 793.578 304.68 793.263 304.113C792.947 303.537 792.79 302.874 792.792 302.124C792.793 301.541 792.895 301.012 793.096 300.537C793.297 300.054 793.581 299.642 793.948 299.302C794.324 298.952 794.775 298.683 795.3 298.492C795.825 298.301 796.413 298.207 797.063 298.208C797.605 298.21 798.1 298.277 798.55 298.412C799.008 298.546 799.412 298.738 799.761 298.989L802.836 298.996ZM806.452 301.729C806.637 301.171 806.854 300.676 807.105 300.243C807.356 299.81 807.644 299.444 807.97 299.145C808.304 298.845 808.68 298.621 809.097 298.472C809.514 298.315 809.985 298.236 810.51 298.238C810.751 298.238 810.997 298.26 811.247 298.302C811.505 298.336 811.734 298.411 811.934 298.528L811.858 298.916C811.825 299.007 811.766 299.053 811.683 299.053C811.591 299.052 811.45 299.023 811.258 298.964C811.075 298.897 810.8 298.863 810.433 298.862C809.917 298.861 809.454 298.944 809.045 299.109C808.645 299.267 808.286 299.504 807.969 299.82C807.66 300.136 807.384 300.531 807.141 301.005C806.898 301.48 806.676 302.033 806.475 302.666L806.457 310.754L805.795 310.752L805.822 298.427L806.122 298.428C806.288 298.428 806.376 298.52 806.384 298.704L806.452 301.729ZM821.219 304.611C818.702 304.689 816.839 304.997 815.63 305.536C814.428 306.075 813.827 306.837 813.825 307.82C813.824 308.278 813.898 308.674 814.047 309.008C814.205 309.342 814.408 309.621 814.658 309.847C814.916 310.064 815.207 310.227 815.532 310.336C815.856 310.437 816.19 310.488 816.531 310.488C817.065 310.489 817.552 310.432 817.994 310.316C818.436 310.192 818.845 310.027 819.22 309.819C819.596 309.612 819.946 309.367 820.272 309.084C820.598 308.801 820.911 308.502 821.211 308.186L821.219 304.611ZM813.854 300.195C814.472 299.563 815.119 299.081 815.794 298.749C816.47 298.417 817.241 298.252 818.108 298.254C818.75 298.256 819.308 298.361 819.782 298.57C820.257 298.771 820.648 299.064 820.955 299.448C821.271 299.832 821.504 300.299 821.652 300.849C821.801 301.391 821.875 302.004 821.873 302.687L821.856 310.787L821.631 310.787C821.464 310.787 821.368 310.699 821.344 310.524L821.223 308.698C820.88 309.048 820.538 309.364 820.196 309.646C819.853 309.929 819.49 310.17 819.107 310.369C818.723 310.56 818.31 310.709 817.868 310.816C817.426 310.924 816.939 310.977 816.405 310.975C816.014 310.975 815.626 310.915 815.243 310.798C814.86 310.68 814.515 310.496 814.207 310.246C813.899 309.995 813.65 309.674 813.459 309.282C813.277 308.881 813.186 308.402 813.187 307.843C813.188 307.302 813.344 306.81 813.653 306.369C813.97 305.929 814.459 305.55 815.118 305.235C815.777 304.912 816.611 304.659 817.619 304.478C818.628 304.289 819.828 304.179 821.22 304.148L821.223 302.686C821.226 301.453 820.961 300.494 820.43 299.809C819.898 299.125 819.107 298.781 818.057 298.779C817.432 298.778 816.894 298.868 816.444 299.051C815.993 299.225 815.618 299.424 815.317 299.648C815.017 299.864 814.775 300.064 814.591 300.247C814.416 300.421 814.282 300.508 814.191 300.508C814.107 300.508 814.032 300.462 813.966 300.37L813.854 300.195ZM835.585 310.817L834.935 310.816L834.959 299.466L827.397 299.449L827.378 308.312C827.377 308.695 827.426 309.024 827.525 309.3C827.625 309.567 827.758 309.788 827.924 309.963C828.09 310.138 828.286 310.268 828.511 310.352C828.744 310.427 828.994 310.465 829.26 310.466C829.585 310.467 829.869 310.417 830.111 310.318C830.361 310.218 830.574 310.111 830.749 309.994C830.924 309.878 831.066 309.77 831.175 309.67C831.283 309.57 831.362 309.521 831.412 309.521C831.454 309.521 831.5 309.546 831.55 309.596L831.712 309.834C831.57 310.009 831.403 310.166 831.211 310.308C831.027 310.449 830.823 310.574 830.597 310.681C830.372 310.781 830.139 310.86 829.897 310.917C829.655 310.975 829.409 311.004 829.159 311.003C828.393 311.002 827.793 310.792 827.361 310.374C826.928 309.948 826.713 309.269 826.715 308.335L826.734 299.448L824.809 299.444C824.651 299.443 824.572 299.381 824.572 299.256L824.573 299.031L826.748 298.935L826.933 294.198C826.942 294.148 826.963 294.103 826.996 294.061C827.03 294.011 827.075 293.986 827.134 293.986L827.409 293.987L827.398 298.949L835.61 298.967L835.585 310.817ZM836.184 293.869C836.184 293.977 836.159 294.081 836.108 294.181C836.058 294.281 835.991 294.372 835.908 294.455C835.833 294.53 835.741 294.593 835.632 294.642C835.532 294.684 835.428 294.704 835.32 294.704C835.203 294.704 835.091 294.683 834.982 294.641C834.882 294.591 834.791 294.528 834.708 294.453C834.633 294.369 834.571 294.278 834.521 294.177C834.479 294.077 834.459 293.973 834.459 293.865C834.46 293.631 834.543 293.432 834.71 293.265C834.886 293.091 835.09 293.004 835.323 293.004C835.432 293.004 835.536 293.03 835.636 293.08C835.744 293.122 835.835 293.184 835.91 293.268C835.993 293.343 836.06 293.435 836.11 293.543C836.159 293.643 836.184 293.752 836.184 293.869ZM844.885 298.312C845.76 298.314 846.535 298.47 847.209 298.78C847.892 299.082 848.466 299.512 848.931 300.071C849.397 300.622 849.749 301.29 849.989 302.074C850.229 302.857 850.348 303.729 850.346 304.687C850.344 305.645 850.221 306.516 849.978 307.299C849.735 308.073 849.379 308.735 848.911 309.284C848.443 309.833 847.867 310.256 847.183 310.555C846.508 310.845 845.732 310.989 844.857 310.987C843.983 310.986 843.204 310.838 842.521 310.545C841.847 310.243 841.277 309.817 840.811 309.266C840.346 308.715 839.993 308.052 839.753 307.276C839.513 306.492 839.394 305.621 839.396 304.663C839.398 303.705 839.521 302.834 839.764 302.051C840.008 301.269 840.363 300.603 840.831 300.054C841.299 299.496 841.871 299.068 842.547 298.77C843.231 298.463 844.01 298.311 844.885 298.312ZM844.859 310.462C845.659 310.464 846.359 310.328 846.96 310.055C847.56 309.781 848.061 309.39 848.462 308.883C848.872 308.375 849.177 307.768 849.379 307.06C849.58 306.352 849.682 305.56 849.684 304.685C849.686 303.81 849.587 303.014 849.389 302.297C849.19 301.58 848.888 300.967 848.48 300.458C848.082 299.94 847.582 299.543 846.983 299.267C846.384 298.982 845.684 298.839 844.884 298.837C844.084 298.836 843.384 298.976 842.783 299.258C842.182 299.532 841.677 299.926 841.268 300.442C840.867 300.95 840.566 301.561 840.364 302.278C840.162 302.994 840.061 303.789 840.059 304.664C840.057 305.539 840.155 306.331 840.354 307.04C840.552 307.749 840.851 308.358 841.25 308.867C841.657 309.376 842.16 309.769 842.76 310.045C843.359 310.322 844.059 310.461 844.859 310.462ZM854.647 300.921C855.224 300.131 855.909 299.503 856.701 299.038C857.502 298.573 858.374 298.342 859.315 298.344C859.999 298.345 860.594 298.455 861.102 298.673C861.618 298.882 862.043 299.187 862.375 299.588C862.716 299.98 862.969 300.464 863.134 301.04C863.308 301.615 863.394 302.265 863.393 302.99L863.376 310.878L862.713 310.876L862.73 302.989C862.732 302.347 862.662 301.772 862.521 301.263C862.381 300.755 862.161 300.325 861.862 299.974C861.571 299.615 861.205 299.344 860.764 299.16C860.322 298.967 859.802 298.87 859.202 298.869C858.302 298.867 857.468 299.102 856.7 299.576C855.941 300.041 855.264 300.689 854.671 301.521L854.651 310.859L853.988 310.857L854.015 298.532L854.327 298.533C854.486 298.533 854.569 298.617 854.577 298.784L854.647 300.921ZM769.864 324.924C769.814 325.007 769.743 325.049 769.651 325.049C769.559 325.049 769.43 324.969 769.264 324.81C769.106 324.643 768.881 324.46 768.59 324.259C768.299 324.058 767.924 323.878 767.466 323.719C767.008 323.551 766.442 323.467 765.767 323.465C765.084 323.464 764.475 323.567 763.941 323.774C763.416 323.973 762.974 324.247 762.614 324.596C762.255 324.945 761.984 325.349 761.799 325.807C761.615 326.256 761.522 326.731 761.521 327.231C761.52 327.873 761.648 328.41 761.905 328.844C762.163 329.27 762.504 329.629 762.928 329.922C763.352 330.214 763.831 330.461 764.364 330.662C764.905 330.863 765.459 331.06 766.025 331.253C766.591 331.438 767.141 331.639 767.674 331.857C768.215 332.066 768.698 332.334 769.122 332.66C769.546 332.986 769.887 333.391 770.144 333.875C770.402 334.35 770.529 334.942 770.528 335.651C770.526 336.376 770.4 337.059 770.148 337.7C769.905 338.333 769.546 338.886 769.07 339.36C768.602 339.826 768.026 340.195 767.342 340.469C766.667 340.734 765.896 340.866 765.029 340.864C764.437 340.862 763.9 340.807 763.417 340.698C762.942 340.597 762.501 340.45 762.093 340.257C761.693 340.056 761.323 339.814 760.982 339.53C760.649 339.246 760.329 338.924 760.022 338.565L760.185 338.316C760.226 338.274 760.26 338.245 760.285 338.228C760.318 338.203 760.364 338.191 760.422 338.191C760.481 338.191 760.56 338.246 760.66 338.354C760.768 338.454 760.905 338.584 761.071 338.743C761.238 338.893 761.437 339.06 761.67 339.244C761.903 339.419 762.178 339.587 762.494 339.746C762.819 339.896 763.189 340.026 763.606 340.136C764.03 340.237 764.509 340.288 765.043 340.289C765.801 340.29 766.481 340.175 767.081 339.943C767.682 339.703 768.186 339.379 768.596 338.971C769.013 338.556 769.331 338.073 769.549 337.524C769.767 336.974 769.876 336.387 769.878 335.762C769.879 335.095 769.751 334.545 769.494 334.111C769.236 333.677 768.896 333.314 768.471 333.021C768.055 332.729 767.576 332.486 767.035 332.293C766.494 332.092 765.94 331.903 765.374 331.727C764.816 331.542 764.266 331.345 763.725 331.136C763.184 330.918 762.701 330.646 762.277 330.32C761.861 329.986 761.524 329.577 761.267 329.093C761.01 328.601 760.882 327.988 760.884 327.255C760.885 326.68 760.994 326.13 761.212 325.605C761.43 325.081 761.744 324.619 762.153 324.22C762.57 323.812 763.079 323.489 763.68 323.248C764.289 323.008 764.985 322.889 765.768 322.89C766.652 322.892 767.43 323.036 768.105 323.32C768.787 323.605 769.424 324.048 770.014 324.65L769.864 324.924ZM778.817 328.169C779.692 328.171 780.466 328.326 781.141 328.636C781.823 328.938 782.397 329.368 782.863 329.928C783.328 330.479 783.681 331.146 783.921 331.93C784.161 332.714 784.28 333.585 784.278 334.543C784.276 335.501 784.153 336.372 783.909 337.155C783.666 337.929 783.311 338.591 782.843 339.14C782.375 339.689 781.799 340.113 781.115 340.411C780.439 340.701 779.664 340.846 778.789 340.844C777.914 340.842 777.135 340.694 776.452 340.401C775.778 340.1 775.208 339.673 774.743 339.122C774.277 338.571 773.924 337.908 773.684 337.133C773.445 336.349 773.326 335.478 773.328 334.519C773.33 333.561 773.452 332.69 773.696 331.908C773.939 331.125 774.295 330.459 774.763 329.91C775.231 329.353 775.802 328.925 776.478 328.626C777.162 328.319 777.942 328.167 778.817 328.169ZM778.79 340.319C779.59 340.32 780.29 340.184 780.891 339.911C781.492 339.637 781.992 339.246 782.394 338.739C782.803 338.232 783.108 337.624 783.31 336.916C783.512 336.208 783.613 335.417 783.615 334.542C783.617 333.667 783.519 332.871 783.32 332.154C783.122 331.436 782.819 330.823 782.412 330.314C782.013 329.796 781.514 329.4 780.914 329.123C780.315 328.839 779.615 328.695 778.815 328.694C778.015 328.692 777.315 328.832 776.714 329.114C776.114 329.388 775.609 329.783 775.199 330.298C774.798 330.806 774.497 331.418 774.295 332.134C774.094 332.85 773.992 333.646 773.99 334.521C773.988 335.396 774.087 336.188 774.285 336.896C774.483 337.605 774.782 338.214 775.181 338.723C775.588 339.233 776.092 339.625 776.691 339.902C777.29 340.178 777.99 340.317 778.79 340.319ZM788.746 322.64L788.707 340.715L788.057 340.714L788.096 322.639L788.746 322.64ZM802.519 328.42L802.492 340.745L802.192 340.745C802.042 340.744 801.954 340.661 801.93 340.494L801.872 338.344C801.287 339.134 800.598 339.766 799.805 340.239C799.013 340.704 798.141 340.936 797.191 340.934C796.508 340.932 795.908 340.827 795.392 340.617C794.884 340.4 794.46 340.094 794.119 339.702C793.787 339.301 793.533 338.813 793.36 338.238C793.194 337.663 793.112 337.012 793.114 336.287L793.131 328.4L793.794 328.401L793.776 336.289C793.775 336.93 793.845 337.506 793.985 338.014C794.126 338.523 794.341 338.957 794.632 339.316C794.932 339.666 795.302 339.938 795.743 340.131C796.193 340.315 796.717 340.408 797.317 340.409C798.209 340.411 799.035 340.179 799.794 339.714C800.562 339.241 801.246 338.588 801.848 337.756L801.869 328.419L802.519 328.42ZM816.44 340.776L815.79 340.774L815.814 329.424L808.252 329.408L808.233 338.27C808.232 338.654 808.281 338.983 808.381 339.258C808.48 339.525 808.613 339.746 808.779 339.921C808.945 340.097 809.141 340.226 809.366 340.31C809.599 340.386 809.849 340.424 810.115 340.424C810.44 340.425 810.724 340.376 810.966 340.276C811.216 340.177 811.429 340.069 811.604 339.953C811.779 339.836 811.921 339.728 812.03 339.629C812.138 339.529 812.218 339.479 812.268 339.479C812.309 339.479 812.355 339.504 812.405 339.554L812.567 339.792C812.425 339.967 812.258 340.125 812.066 340.266C811.882 340.407 811.678 340.532 811.453 340.64C811.227 340.739 810.994 340.818 810.752 340.876C810.51 340.934 810.264 340.962 810.014 340.962C809.248 340.96 808.648 340.75 808.216 340.333C807.783 339.907 807.568 339.227 807.57 338.294L807.589 329.406L805.664 329.402C805.506 329.402 805.427 329.339 805.427 329.214L805.428 328.989L807.603 328.894L807.788 324.157C807.797 324.107 807.818 324.061 807.851 324.019C807.885 323.969 807.931 323.945 807.989 323.945L808.264 323.945L808.253 328.908L816.466 328.926L816.44 340.776ZM817.039 323.827C817.039 323.935 817.014 324.039 816.963 324.139C816.913 324.239 816.846 324.331 816.763 324.414C816.688 324.489 816.596 324.551 816.487 324.601C816.387 324.642 816.283 324.663 816.175 324.663C816.058 324.662 815.946 324.641 815.837 324.599C815.738 324.549 815.646 324.486 815.563 324.411C815.488 324.328 815.426 324.236 815.376 324.136C815.335 324.036 815.314 323.931 815.314 323.823C815.315 323.59 815.398 323.39 815.565 323.224C815.741 323.049 815.945 322.962 816.179 322.963C816.287 322.963 816.391 322.988 816.491 323.038C816.599 323.08 816.691 323.143 816.765 323.226C816.849 323.301 816.915 323.393 816.965 323.502C817.015 323.602 817.039 323.71 817.039 323.827ZM825.74 328.271C826.615 328.273 827.39 328.429 828.064 328.738C828.747 329.04 829.321 329.47 829.786 330.03C830.252 330.581 830.605 331.248 830.845 332.032C831.085 332.816 831.203 333.687 831.201 334.645C831.199 335.604 831.077 336.474 830.833 337.257C830.59 338.031 830.234 338.693 829.766 339.242C829.298 339.791 828.723 340.215 828.039 340.513C827.363 340.804 826.588 340.948 825.713 340.946C824.838 340.944 824.059 340.796 823.376 340.503C822.702 340.202 822.132 339.776 821.666 339.225C821.201 338.674 820.848 338.01 820.608 337.235C820.368 336.451 820.249 335.58 820.251 334.621C820.253 333.663 820.376 332.793 820.62 332.01C820.863 331.227 821.219 330.561 821.686 330.012C822.154 329.455 822.726 329.027 823.402 328.728C824.086 328.421 824.865 328.269 825.74 328.271ZM825.714 340.421C826.514 340.423 827.214 340.287 827.815 340.013C828.415 339.739 828.916 339.349 829.317 338.841C829.727 338.334 830.032 337.726 830.234 337.018C830.435 336.31 830.537 335.519 830.539 334.644C830.541 333.769 830.443 332.973 830.244 332.256C830.046 331.539 829.743 330.925 829.336 330.416C828.937 329.899 828.438 329.502 827.838 329.225C827.239 328.941 826.539 328.798 825.739 328.796C824.939 328.794 824.239 328.934 823.638 329.216C823.038 329.49 822.533 329.885 822.123 330.4C821.722 330.908 821.421 331.52 821.219 332.236C821.018 332.952 820.916 333.748 820.914 334.623C820.912 335.498 821.01 336.29 821.209 336.999C821.407 337.707 821.706 338.316 822.105 338.825C822.512 339.335 823.015 339.727 823.615 340.004C824.214 340.28 824.914 340.419 825.714 340.421ZM835.502 330.88C836.079 330.089 836.764 329.462 837.556 328.997C838.357 328.532 839.229 328.3 840.17 328.302C840.854 328.304 841.449 328.413 841.957 328.631C842.473 328.841 842.898 329.146 843.23 329.546C843.571 329.939 843.824 330.423 843.99 330.998C844.163 331.573 844.249 332.224 844.248 332.949L844.231 340.836L843.568 340.835L843.585 332.947C843.587 332.306 843.517 331.73 843.377 331.222C843.236 330.713 843.016 330.283 842.717 329.933C842.426 329.574 842.06 329.302 841.619 329.118C841.177 328.925 840.657 328.828 840.057 328.827C839.157 328.825 838.323 329.061 837.555 329.534C836.796 329.999 836.12 330.648 835.526 331.48L835.506 340.817L834.843 340.816L834.87 328.491L835.183 328.491C835.341 328.492 835.424 328.575 835.432 328.742L835.502 330.88Z" fill="white"/>
</svg>
