<svg width="609" height="214" viewBox="0 0 609 214" fill="none" xmlns="http://www.w3.org/2000/svg">
<g clip-path="url(#clip0)">
<path opacity="0.45" d="M0 111H115V214H60C26.8629 214 0 187.137 0 154V111Z" fill="#FAD744"/>
<path opacity="0.4" d="M123 0H172C205.137 0 232 26.8629 232 60V102H123V0Z" fill="#FB6542"/>
<path opacity="0.4" d="M0 60C0 26.8629 26.8629 0 60 0H115V103H0V60Z" fill="#2B3252"/>
<path d="M354.203 36.128C354.203 38.768 353.819 41.152 353.051 43.28C352.283 45.392 351.203 47.2 349.811 48.704C348.419 50.192 346.755 51.336 344.819 52.136C342.883 52.936 340.739 53.336 338.387 53.336C336.067 53.336 333.939 52.936 332.003 52.136C330.067 51.336 328.403 50.192 327.011 48.704C325.619 47.2 324.539 45.392 323.771 43.28C323.003 41.152 322.619 38.768 322.619 36.128C322.619 33.504 323.003 31.128 323.771 29C324.539 26.872 325.619 25.064 327.011 23.576C328.403 22.072 330.067 20.912 332.003 20.096C333.939 19.28 336.067 18.872 338.387 18.872C340.739 18.872 342.883 19.28 344.819 20.096C346.755 20.896 348.419 22.048 349.811 23.552C351.203 25.04 352.283 26.848 353.051 28.976C353.819 31.104 354.203 33.488 354.203 36.128ZM352.811 36.128C352.811 33.616 352.459 31.368 351.755 29.384C351.067 27.384 350.083 25.688 348.803 24.296C347.539 22.904 346.019 21.84 344.243 21.104C342.483 20.368 340.531 20 338.387 20C336.275 20 334.331 20.368 332.555 21.104C330.795 21.84 329.275 22.904 327.995 24.296C326.731 25.688 325.739 27.384 325.019 29.384C324.315 31.368 323.963 33.616 323.963 36.128C323.963 38.64 324.315 40.896 325.019 42.896C325.739 44.88 326.731 46.56 327.995 47.936C329.275 49.312 330.795 50.368 332.555 51.104C334.331 51.84 336.275 52.208 338.387 52.208C340.531 52.208 342.483 51.84 344.243 51.104C346.019 50.368 347.539 49.312 348.803 47.936C350.083 46.56 351.067 44.88 351.755 42.896C352.459 40.896 352.811 38.64 352.811 36.128ZM388.001 19.256V53H387.449C387.241 53 387.065 52.904 386.921 52.712L363.761 21.416C363.777 21.56 363.785 21.712 363.785 21.872C363.801 22.016 363.809 22.152 363.809 22.28V53H362.657V19.256H363.257C363.385 19.256 363.489 19.28 363.569 19.328C363.649 19.36 363.737 19.44 363.833 19.568L386.897 50.744C386.881 50.6 386.865 50.456 386.849 50.312C386.849 50.168 386.849 50.032 386.849 49.904V19.256H388.001ZM416.752 51.848V53H398.704V19.256H400.024V51.848H416.752ZM424.164 53H422.844V19.256H424.164V53ZM460.235 19.256V53H459.683C459.475 53 459.299 52.904 459.155 52.712L435.995 21.416C436.011 21.56 436.019 21.712 436.019 21.872C436.035 22.016 436.043 22.152 436.043 22.28V53H434.891V19.256H435.491C435.619 19.256 435.723 19.28 435.803 19.328C435.883 19.36 435.971 19.44 436.067 19.568L459.131 50.744C459.115 50.6 459.099 50.456 459.083 50.312C459.083 50.168 459.083 50.032 459.083 49.904V19.256H460.235ZM490.906 51.872L490.858 53H470.938V19.256H490.858V20.384H472.258V35.336H487.93V36.44H472.258V51.872H490.906ZM272.711 111H271.391V77.256H272.711V111ZM315.838 77.256V111H314.686V80.136C314.686 80.008 314.686 79.88 314.686 79.752C314.702 79.624 314.71 79.496 314.71 79.368L300.55 104.208C300.39 104.48 300.198 104.616 299.974 104.616H299.734C299.494 104.616 299.294 104.48 299.134 104.208L284.542 79.32C284.558 79.464 284.566 79.608 284.566 79.752C284.582 79.88 284.59 80.008 284.59 80.136V111H283.438V77.256H284.23C284.358 77.256 284.462 77.28 284.542 77.328C284.638 77.36 284.726 77.44 284.806 77.568L299.446 102.432C299.59 102.736 299.726 103.032 299.854 103.32C299.918 103.176 299.982 103.032 300.046 102.888C300.11 102.728 300.182 102.568 300.262 102.408L314.47 77.568C314.55 77.44 314.63 77.36 314.71 77.328C314.806 77.28 314.918 77.256 315.046 77.256H315.838ZM358.963 77.256V111H357.811V80.136C357.811 80.008 357.811 79.88 357.811 79.752C357.827 79.624 357.835 79.496 357.835 79.368L343.675 104.208C343.515 104.48 343.323 104.616 343.099 104.616H342.859C342.619 104.616 342.419 104.48 342.259 104.208L327.667 79.32C327.683 79.464 327.691 79.608 327.691 79.752C327.707 79.88 327.715 80.008 327.715 80.136V111H326.563V77.256H327.355C327.483 77.256 327.587 77.28 327.667 77.328C327.763 77.36 327.851 77.44 327.931 77.568L342.571 102.432C342.715 102.736 342.851 103.032 342.979 103.32C343.043 103.176 343.107 103.032 343.171 102.888C343.235 102.728 343.307 102.568 343.387 102.408L357.595 77.568C357.675 77.44 357.755 77.36 357.835 77.328C357.931 77.28 358.043 77.256 358.171 77.256H358.963ZM371.008 111H369.688V77.256H371.008V111ZM408.447 96.168V107.688C406.783 108.824 404.991 109.728 403.071 110.4C401.151 111.056 398.983 111.384 396.567 111.384C393.927 111.384 391.551 110.984 389.439 110.184C387.327 109.368 385.527 108.216 384.039 106.728C382.567 105.224 381.439 103.408 380.655 101.28C379.871 99.152 379.479 96.768 379.479 94.128C379.479 91.488 379.863 89.112 380.631 87C381.415 84.872 382.535 83.056 383.991 81.552C385.447 80.048 387.207 78.896 389.271 78.096C391.335 77.28 393.655 76.872 396.231 76.872C397.495 76.872 398.655 76.952 399.711 77.112C400.783 77.272 401.775 77.52 402.687 77.856C403.599 78.176 404.455 78.584 405.255 79.08C406.071 79.576 406.855 80.152 407.607 80.808L407.271 81.312C407.143 81.504 406.959 81.568 406.719 81.504C406.559 81.456 406.263 81.248 405.831 80.88C405.415 80.512 404.799 80.12 403.983 79.704C403.167 79.272 402.119 78.88 400.839 78.528C399.575 78.176 398.031 78 396.207 78C393.855 78 391.727 78.368 389.823 79.104C387.935 79.84 386.319 80.904 384.975 82.296C383.647 83.688 382.623 85.384 381.903 87.384C381.183 89.368 380.823 91.616 380.823 94.128C380.823 96.624 381.183 98.872 381.903 100.872C382.623 102.872 383.655 104.576 384.999 105.984C386.359 107.376 388.007 108.448 389.943 109.2C391.895 109.936 394.095 110.304 396.543 110.304C397.647 110.304 398.671 110.232 399.615 110.088C400.575 109.944 401.479 109.736 402.327 109.464C403.175 109.192 403.999 108.864 404.799 108.48C405.599 108.08 406.407 107.632 407.223 107.136V97.224H400.095C399.983 97.224 399.887 97.184 399.807 97.104C399.727 97.024 399.687 96.936 399.687 96.84V96.168H408.447ZM418.492 94.104H424.924C426.508 94.104 427.932 93.92 429.196 93.552C430.476 93.168 431.556 92.624 432.436 91.92C433.332 91.2 434.012 90.336 434.476 89.328C434.956 88.32 435.196 87.184 435.196 85.92C435.196 83.312 434.348 81.392 432.652 80.16C430.956 78.928 428.508 78.312 425.308 78.312H418.492V94.104ZM439.564 111H438.484C438.308 111 438.148 110.976 438.004 110.928C437.876 110.88 437.748 110.768 437.62 110.592L425.716 96.024C425.588 95.848 425.452 95.704 425.308 95.592C425.18 95.48 425.028 95.392 424.852 95.328C424.692 95.248 424.492 95.192 424.252 95.16C424.028 95.128 423.748 95.112 423.412 95.112H418.492V111H417.172V77.256H425.308C428.972 77.256 431.756 77.968 433.66 79.392C435.564 80.816 436.516 82.976 436.516 85.872C436.516 87.2 436.268 88.408 435.772 89.496C435.276 90.568 434.58 91.504 433.684 92.304C432.788 93.088 431.7 93.72 430.42 94.2C429.14 94.664 427.724 94.944 426.172 95.04C426.46 95.2 426.74 95.44 427.012 95.76L439.564 111ZM464.149 98.904L456.421 80.112C456.245 79.68 456.077 79.2 455.917 78.672C455.773 79.2 455.605 79.68 455.413 80.112L447.685 98.904H464.149ZM470.533 111H469.501C469.261 111 469.085 110.864 468.973 110.592L464.581 99.912H447.253L442.861 110.592C442.781 110.864 442.597 111 442.309 111H441.325L455.293 77.256H456.565L470.533 111ZM502.094 77.256V111H501.542C501.334 111 501.158 110.904 501.014 110.712L477.854 79.416C477.87 79.56 477.878 79.712 477.878 79.872C477.894 80.016 477.902 80.152 477.902 80.28V111H476.75V77.256H477.35C477.478 77.256 477.582 77.28 477.662 77.328C477.742 77.36 477.83 77.44 477.926 77.568L500.99 108.744C500.974 108.6 500.958 108.456 500.942 108.312C500.942 108.168 500.942 108.032 500.942 107.904V77.256H502.094ZM534.253 78.408H521.893V111H520.573V78.408H508.141V77.256H534.253V78.408ZM322.53 138.76C322.434 138.92 322.298 139 322.122 139C321.946 139 321.698 138.848 321.378 138.544C321.074 138.224 320.642 137.872 320.082 137.488C319.522 137.104 318.802 136.76 317.922 136.456C317.042 136.136 315.954 135.976 314.658 135.976C313.346 135.976 312.178 136.176 311.154 136.576C310.146 136.96 309.298 137.488 308.61 138.16C307.922 138.832 307.402 139.608 307.05 140.488C306.698 141.352 306.522 142.264 306.522 143.224C306.522 144.456 306.77 145.488 307.266 146.32C307.762 147.136 308.418 147.824 309.234 148.384C310.05 148.944 310.97 149.416 311.994 149.8C313.034 150.184 314.098 150.56 315.186 150.928C316.274 151.28 317.33 151.664 318.354 152.08C319.394 152.48 320.322 152.992 321.138 153.616C321.954 154.24 322.61 155.016 323.106 155.944C323.602 156.856 323.85 157.992 323.85 159.352C323.85 160.744 323.61 162.056 323.13 163.288C322.666 164.504 321.978 165.568 321.066 166.48C320.17 167.376 319.066 168.088 317.754 168.616C316.458 169.128 314.978 169.384 313.314 169.384C312.178 169.384 311.146 169.28 310.218 169.072C309.306 168.88 308.458 168.6 307.674 168.232C306.906 167.848 306.194 167.384 305.538 166.84C304.898 166.296 304.282 165.68 303.69 164.992L304.002 164.512C304.082 164.432 304.146 164.376 304.194 164.344C304.258 164.296 304.346 164.272 304.458 164.272C304.57 164.272 304.722 164.376 304.914 164.584C305.122 164.776 305.386 165.024 305.706 165.328C306.026 165.616 306.41 165.936 306.858 166.288C307.306 166.624 307.834 166.944 308.442 167.248C309.066 167.536 309.778 167.784 310.578 167.992C311.394 168.184 312.314 168.28 313.338 168.28C314.794 168.28 316.098 168.056 317.25 167.608C318.402 167.144 319.37 166.52 320.154 165.736C320.954 164.936 321.562 164.008 321.978 162.952C322.394 161.896 322.602 160.768 322.602 159.568C322.602 158.288 322.354 157.232 321.858 156.4C321.362 155.568 320.706 154.872 319.89 154.312C319.09 153.752 318.17 153.288 317.13 152.92C316.09 152.536 315.026 152.176 313.938 151.84C312.866 151.488 311.81 151.112 310.77 150.712C309.73 150.296 308.802 149.776 307.986 149.152C307.186 148.512 306.538 147.728 306.042 146.8C305.546 145.856 305.298 144.68 305.298 143.272C305.298 142.168 305.506 141.112 305.922 140.104C306.338 139.096 306.938 138.208 307.722 137.44C308.522 136.656 309.498 136.032 310.65 135.568C311.818 135.104 313.154 134.872 314.658 134.872C316.354 134.872 317.85 135.144 319.146 135.688C320.458 136.232 321.682 137.08 322.818 138.232L322.53 138.76ZM352.062 167.872L352.014 169H332.094V135.256H352.014V136.384H333.414V151.336H349.086V152.44H333.414V167.872H352.062ZM361.305 152.104H367.737C369.321 152.104 370.745 151.92 372.009 151.552C373.289 151.168 374.369 150.624 375.249 149.92C376.145 149.2 376.825 148.336 377.289 147.328C377.769 146.32 378.009 145.184 378.009 143.92C378.009 141.312 377.161 139.392 375.465 138.16C373.769 136.928 371.321 136.312 368.121 136.312H361.305V152.104ZM382.377 169H381.297C381.121 169 380.961 168.976 380.817 168.928C380.689 168.88 380.561 168.768 380.433 168.592L368.529 154.024C368.401 153.848 368.265 153.704 368.121 153.592C367.993 153.48 367.841 153.392 367.665 153.328C367.505 153.248 367.305 153.192 367.065 153.16C366.841 153.128 366.561 153.112 366.225 153.112H361.305V169H359.985V135.256H368.121C371.785 135.256 374.569 135.968 376.473 137.392C378.377 138.816 379.329 140.976 379.329 143.872C379.329 145.2 379.081 146.408 378.585 147.496C378.089 148.568 377.393 149.504 376.497 150.304C375.601 151.088 374.513 151.72 373.233 152.2C371.953 152.664 370.537 152.944 368.985 153.04C369.273 153.2 369.553 153.44 369.825 153.76L382.377 169ZM412.83 135.256L398.814 169H397.638L383.622 135.256H384.654C384.926 135.256 385.102 135.392 385.182 135.664L397.71 165.88C397.806 166.136 397.894 166.4 397.974 166.672C398.07 166.928 398.158 167.192 398.238 167.464C398.382 166.92 398.55 166.392 398.742 165.88L411.246 135.664C411.326 135.392 411.518 135.256 411.822 135.256H412.83ZM420.367 169H419.047V135.256H420.367V169ZM455.79 163.984C455.854 163.984 455.942 164.024 456.054 164.104L456.558 164.632C455.854 165.336 455.094 165.984 454.278 166.576C453.462 167.152 452.566 167.648 451.59 168.064C450.614 168.48 449.542 168.8 448.374 169.024C447.222 169.264 445.95 169.384 444.558 169.384C442.27 169.384 440.158 168.984 438.222 168.184C436.302 167.368 434.646 166.216 433.254 164.728C431.862 163.224 430.774 161.408 429.99 159.28C429.206 157.152 428.814 154.768 428.814 152.128C428.814 149.552 429.206 147.208 429.99 145.096C430.774 142.968 431.878 141.152 433.302 139.648C434.742 138.128 436.454 136.952 438.438 136.12C440.438 135.288 442.638 134.872 445.038 134.872C447.294 134.872 449.294 135.216 451.038 135.904C452.782 136.592 454.406 137.584 455.91 138.88L455.55 139.408C455.486 139.52 455.358 139.576 455.166 139.576C455.07 139.576 454.902 139.488 454.662 139.312C454.438 139.136 454.134 138.92 453.75 138.664C453.382 138.392 452.926 138.104 452.382 137.8C451.854 137.48 451.23 137.192 450.51 136.936C449.79 136.664 448.974 136.44 448.062 136.264C447.15 136.088 446.142 136 445.038 136C442.862 136 440.862 136.376 439.038 137.128C437.214 137.88 435.646 138.952 434.334 140.344C433.022 141.736 431.998 143.432 431.262 145.432C430.542 147.416 430.182 149.648 430.182 152.128C430.182 154.656 430.542 156.92 431.262 158.92C431.998 160.904 433.014 162.592 434.31 163.984C435.606 165.36 437.134 166.416 438.894 167.152C440.654 167.888 442.566 168.256 444.63 168.256C445.926 168.256 447.086 168.168 448.11 167.992C449.134 167.816 450.07 167.552 450.918 167.2C451.782 166.848 452.574 166.416 453.294 165.904C454.03 165.392 454.758 164.808 455.478 164.152C455.59 164.04 455.694 163.984 455.79 163.984ZM483.687 167.872L483.639 169H463.719V135.256H483.639V136.384H465.039V151.336H480.711V152.44H465.039V167.872H483.687ZM507.546 138.76C507.45 138.92 507.314 139 507.138 139C506.962 139 506.714 138.848 506.394 138.544C506.09 138.224 505.658 137.872 505.098 137.488C504.538 137.104 503.818 136.76 502.938 136.456C502.058 136.136 500.97 135.976 499.674 135.976C498.362 135.976 497.194 136.176 496.17 136.576C495.162 136.96 494.314 137.488 493.626 138.16C492.938 138.832 492.418 139.608 492.066 140.488C491.714 141.352 491.538 142.264 491.538 143.224C491.538 144.456 491.786 145.488 492.282 146.32C492.778 147.136 493.434 147.824 494.25 148.384C495.066 148.944 495.986 149.416 497.01 149.8C498.05 150.184 499.114 150.56 500.202 150.928C501.29 151.28 502.346 151.664 503.37 152.08C504.41 152.48 505.338 152.992 506.154 153.616C506.97 154.24 507.626 155.016 508.122 155.944C508.618 156.856 508.866 157.992 508.866 159.352C508.866 160.744 508.626 162.056 508.146 163.288C507.682 164.504 506.994 165.568 506.082 166.48C505.186 167.376 504.082 168.088 502.77 168.616C501.474 169.128 499.994 169.384 498.33 169.384C497.194 169.384 496.162 169.28 495.234 169.072C494.322 168.88 493.474 168.6 492.69 168.232C491.922 167.848 491.21 167.384 490.554 166.84C489.914 166.296 489.298 165.68 488.706 164.992L489.018 164.512C489.098 164.432 489.162 164.376 489.21 164.344C489.274 164.296 489.362 164.272 489.474 164.272C489.586 164.272 489.738 164.376 489.93 164.584C490.138 164.776 490.402 165.024 490.722 165.328C491.042 165.616 491.426 165.936 491.874 166.288C492.322 166.624 492.85 166.944 493.458 167.248C494.082 167.536 494.794 167.784 495.594 167.992C496.41 168.184 497.33 168.28 498.354 168.28C499.81 168.28 501.114 168.056 502.266 167.608C503.418 167.144 504.386 166.52 505.17 165.736C505.97 164.936 506.578 164.008 506.994 162.952C507.41 161.896 507.618 160.768 507.618 159.568C507.618 158.288 507.37 157.232 506.874 156.4C506.378 155.568 505.722 154.872 504.906 154.312C504.106 153.752 503.186 153.288 502.146 152.92C501.106 152.536 500.042 152.176 498.954 151.84C497.882 151.488 496.826 151.112 495.786 150.712C494.746 150.296 493.818 149.776 493.002 149.152C492.202 148.512 491.554 147.728 491.058 146.8C490.562 145.856 490.314 144.68 490.314 143.272C490.314 142.168 490.522 141.112 490.938 140.104C491.354 139.096 491.954 138.208 492.738 137.44C493.538 136.656 494.514 136.032 495.666 135.568C496.834 135.104 498.17 134.872 499.674 134.872C501.37 134.872 502.866 135.144 504.162 135.688C505.474 136.232 506.698 137.08 507.834 138.232L507.546 138.76Z" fill="black"/>
</g>
<defs>
<clipPath id="clip0">
<rect width="609" height="214" fill="white"/>
</clipPath>
</defs>
</svg>
